<?xml version="1.0" encoding="UTF-8"?>
<svg width="578px" height="514px" viewBox="0 0 578 514" version="1.1" xmlns="http://www.w3.org/2000/svg" xmlns:xlink="http://www.w3.org/1999/xlink">
    <!-- Generator: Sketch 52.6 (67491) - http://www.bohemiancoding.com/sketch -->
    <title>logo</title>
    <desc>Created with Sketch.</desc>
    <g id="Page-1" stroke="none" stroke-width="1" fill="none" fill-rule="evenodd">
        <g id="logo">
            <g id="Group" transform="translate(0.000000, 440.000000)">
                <path d="M22.9,54.5 L17.7,73.1 L0.7,73.1 L22.9,0.5 L44.4,0.5 L66.9,73.1 L49.2,73.1 L43.6,54.5 L22.9,54.5 Z M41.3,42.2 L36.8,26.8 C35.5,22.5 34.2,17.1 33.1,12.8 L32.9,12.8 C31.8,17.1 30.7,22.6 29.6,26.8 L25.3,42.2 L41.3,42.2 Z" id="Shape" fill="#FF5F2C" fill-rule="nonzero"></path>
                <path d="M82,1.5 C87.1,0.6 94.2,0 104.2,0 C114.3,0 121.5,1.9 126.4,5.8 C131,9.5 134.2,15.5 134.2,22.6 C134.2,29.7 131.8,35.7 127.5,39.8 C121.9,45.1 113.6,47.4 103.9,47.4 C101.7,47.4 99.8,47.3 98.3,47.1 L98.3,73 L82,73 L82,1.5 Z M98.2,34.4 C99.6,34.7 101.3,34.8 103.7,34.8 C112.4,34.8 117.8,30.4 117.8,23 C117.8,16.3 113.2,12.3 105,12.3 C101.7,12.3 99.4,12.6 98.2,12.9 L98.2,34.4 Z" id="Shape" fill="#FF5F2C" fill-rule="nonzero"></path>
                <path d="M149.9,1.5 C155,0.6 162.1,0 172.1,0 C182.2,0 189.4,1.9 194.3,5.8 C198.9,9.5 202.1,15.5 202.1,22.6 C202.1,29.7 199.7,35.7 195.4,39.8 C189.8,45.1 181.5,47.4 171.8,47.4 C169.6,47.4 167.7,47.3 166.2,47.1 L166.2,73 L149.9,73 L149.9,1.5 Z M166.2,34.4 C167.6,34.7 169.3,34.8 171.7,34.8 C180.4,34.8 185.8,30.4 185.8,23 C185.8,16.3 181.2,12.3 173,12.3 C169.7,12.3 167.4,12.6 166.2,12.9 L166.2,34.4 Z" id="Shape" fill="#FF5F2C" fill-rule="nonzero"></path>
                <path d="M277.7,45.3 C277.4,36.6 277.1,26 277.1,15.5 L276.8,15.5 C274.5,24.8 271.5,35.1 268.7,43.6 L259.9,71.9 L247,71.9 L239.2,43.8 C236.8,35.3 234.4,25 232.6,15.5 L232.4,15.5 C232,25.3 231.6,36.5 231.1,45.5 L229.8,73.1 L214.6,73.1 L219.2,0.5 L241.1,0.5 L248.2,24.7 C250.5,33.1 252.7,42.1 254.3,50.6 L254.6,50.6 C256.6,42.2 259.1,32.6 261.5,24.5 L269.3,0.4 L290.7,0.4 L294.7,73 L278.7,73 L277.7,45.3 Z" id="Path" fill="#6E1953"></path>
                <path d="M329.4,54.5 L324.2,73.1 L307.2,73.1 L329.4,0.5 L350.9,0.5 L373.4,73.1 L355.7,73.1 L350.1,54.5 L329.4,54.5 Z M347.8,42.2 L343.3,26.8 C342,22.5 340.7,17.1 339.6,12.8 L339.4,12.8 C338.3,17.1 337.2,22.6 336.1,26.8 L331.8,42.2 L347.8,42.2 Z" id="Shape" fill="#6E1953" fill-rule="nonzero"></path>
                <path d="M388.5,0.5 L404.8,0.5 L404.8,32.6 L405.1,32.6 C406.7,29.8 408.4,27.2 410.1,24.6 L426.6,0.5 L446.7,0.5 L422.7,31.4 L448,73.1 L428.8,73.1 L411,41.8 L404.8,49.4 L404.8,73.1 L388.5,73.1 L388.5,0.5 Z" id="Path" fill="#6E1953"></path>
                <polygon id="Path" fill="#6E1953" points="503.2 42.4 476.5 42.4 476.5 59.6 506.3 59.6 506.3 73.1 460 73.1 460 0.5 504.8 0.5 504.8 14 476.5 14 476.5 29 503.2 29"></polygon>
                <path d="M522.9,1.5 C528.2,0.6 536,0 544.8,0 C555.6,0 563.1,1.6 568.3,5.7 C572.6,9.1 575,14.2 575,20.9 C575,30.2 568.4,36.5 562.2,38.8 L562.2,39.1 C567.3,41.1 570.1,46 571.9,52.7 C574.2,60.9 576.4,70.4 577.8,73.2 L561,73.2 C559.8,71.2 558.1,65.2 555.9,56.3 C554,47.3 550.8,44.8 544.2,44.7 L539.2,44.7 L539.2,73.2 L522.9,73.2 L522.9,1.5 Z M539.1,32.7 L545.6,32.7 C553.8,32.7 558.6,28.6 558.6,22.3 C558.6,15.6 554.1,12.3 546.5,12.2 C542.5,12.2 540.3,12.5 539.1,12.7 L539.1,32.7 Z" id="Shape" fill="#6E1953" fill-rule="nonzero"></path>
            </g>
            <g id="Group" transform="translate(101.000000, 3.000000)" fill="#E0E0E0">
                <g transform="translate(236.000000, 46.000000)">
                    <path d="M2.4,11.9 C5,12.8 7.8,13.4 10.3,14.6 C15.7,17.1 21.1,19.8 26.4,22.5 C31.5,25.2 36.7,24.4 40.7,20.3 C44,16.9 47.4,13.5 50.8,10.2 C53.7,7.5 57.2,6.5 61.1,7 C61.7,7.1 62.3,7.1 63,6.9 C60.9,5.4 58.8,3.8 56.7,2.3 C56.8,2.1 56.9,2 57.1,1.8 C58.2,2.5 59.4,3.2 60.4,4 C66,8.6 71.5,13.2 77.1,17.8 C77.4,18.1 77.4,18.8 77.7,19.2 C78.1,19.8 78.5,20.5 79.1,21 C80.1,21.7 80.4,23.8 82.4,22.9 C82.5,22.9 83,23.4 83,23.7 C83.4,25.7 85.2,27.8 87.1,28.1 C87.4,28.2 87.7,28.4 87.9,28.7 C93.2,35.5 98.4,42.2 103.6,49 C103.9,49.3 104,49.8 103.8,50.4 C100.3,45.7 96.9,41 93.2,35.8 C93.4,38.1 93.8,39.8 93.7,41.5 C93.6,45 92.1,48 89.6,50.5 C86.5,53.6 83.6,56.8 80.4,59.7 C76.4,63.3 75.8,69.4 78.6,74.3 C81.5,79.5 84.3,84.7 86.6,90.2 C88.9,95.6 90.6,101.2 92.2,106.8 C93.7,111.9 97.6,116.4 104.8,116 C108.7,115.8 112.6,115.9 116.5,115.8 C124.7,115.7 130.3,121 130.4,129.3 C130.5,139.3 130.5,149.4 130.5,159.4 C130.5,159.7 130.5,160.1 130.9,160.4 C132.2,153.6 131.9,146.7 132,139.7 C132.2,139.7 132.5,139.7 132.7,139.7 C132.7,143.1 132.7,146.4 132.6,149.8 C132.5,153.2 132.4,156.5 132.3,160.2 C133.5,160 134.7,159.8 135.9,159.6 C135.9,159.8 136,160 136,160.1 C135.2,160.3 134.4,160.7 133.5,160.8 C132.4,160.9 131.9,161.4 131.9,162.5 C131.8,164.2 131.5,165.9 131.3,167.6 C131.1,167.6 130.9,167.6 130.7,167.5 C130.9,165.5 131,163.5 131.2,161.5 C131,161.4 130.9,161.4 130.7,161.3 C130.5,161.7 130.1,162 130,162.4 C128.1,168.3 123.5,171.7 117.4,171.7 C112.6,171.7 107.9,171.7 103.1,171.8 C98.9,171.8 94.7,174.8 93.2,179.1 C91.6,183.7 90.2,188.3 88.7,192.9 C88.5,193.6 87.9,194.2 87.5,194.9 C85.8,195.6 84,196.4 82.3,197.1 C81.4,196.5 80.6,195.8 79.7,195.2 C80.5,195.2 81.4,195.1 82.5,195.1 C82.7,194.7 83,194 83.2,193.3 C84.7,188.6 86.4,183.9 87.7,179.1 C89.7,171.7 95.7,166.9 103.3,166.7 C108.3,166.6 113.2,166.6 118.2,166.5 C121.1,166.4 123.1,164.9 124.5,162.3 C123.7,162.2 123.1,162.1 122.3,162 C125.4,160.5 125.4,160.5 125.4,157.2 C125.4,147.7 125.3,138.2 125.3,128.8 C125.3,124.3 121.9,120.9 117.4,120.8 C112.9,120.8 108.5,120.8 104,120.8 C95.8,120.9 89.7,116.2 87.4,108.4 C85.8,103.1 84,97.9 82.1,92.2 C77.5,94.3 73.3,96.2 69,98.2 C68.9,97.9 68.8,97.7 68.7,97.4 C73,95.6 77.2,93.8 81.5,91.9 C81.4,91.5 81.3,91.1 81.2,90.8 C78.8,85.9 76.5,80.9 73.8,76.2 C70.2,69.9 70.7,62.2 75.5,56.9 C78.9,53.2 82.6,49.7 86.2,46 C89.2,42.9 89.2,38.1 86.2,35.1 C80.6,29.5 74.9,23.9 69.3,18.3 C67.7,16.7 66.1,15.1 64.4,13.6 C62.1,11.6 59.2,10.1 56.2,13.8 C55.3,14.8 54.3,15.7 53.3,16.7 C53.1,16.5 53,16.4 52.8,16.2 C54.1,14.9 55.3,13.7 56.6,12.4 C55.7,12.5 54.9,12.8 54.3,13.3 C51.1,16.4 47.9,19.4 45,22.6 C39,29.3 31.3,29.9 25.6,27.2 C21.1,25.1 16.6,22.7 12.2,20.3 C9,18.5 8.5,18.6 7.1,21.6 C7.1,21.6 6.9,21.6 6.8,21.6 C6.8,21.4 6.7,21.2 6.7,21.1 C7.8,19.2 7.5,17.9 5.2,17.4 C4.9,17.3 4.7,16.9 4.4,16.7 C3.9,15.4 3.1,13.7 2.4,11.9 Z" id="Path"></path>
                    <path d="M82.3,198.6 L79.6,196.6 L78.8,196.6 L78.9,193.5 L80.2,194.5 L82,194.4 C82.1,194.1 82.3,193.7 82.4,193.3 C82.8,192 83.3,190.6 83.7,189.3 C84.8,186 85.9,182.6 86.9,179.2 C89.1,171.3 95.5,166.2 103.5,166.1 C106,166 108.4,166 110.9,166 C113.4,166 115.9,166 118.4,165.9 C120.3,165.9 121.8,165.1 123,163.5 L119.1,162.9 L122.1,161.5 C124.7,160.3 124.7,160.3 124.6,157.6 C124.6,148.1 124.5,138.6 124.5,129.1 C124.5,125.2 121.5,122.2 117.6,122.2 C113.4,122.2 109,122.2 104.2,122.2 C95.6,122.3 89,117.4 86.6,109.1 C85.5,105.5 84.4,102 83.1,98.2 C82.6,96.8 82.2,95.4 81.7,94 L68.7,99.9 L67.5,97.2 L80.5,91.7 C80.5,91.7 80.5,91.7 80.5,91.6 C79.8,90.2 79.1,88.7 78.4,87.3 C76.8,83.9 75.1,80.4 73.2,77.1 C69.3,70.3 70.1,62 75.1,56.6 C77.1,54.4 79.3,52.2 81.4,50.2 C82.9,48.7 84.3,47.3 85.8,45.8 C88.4,43.1 88.4,38.9 85.8,36.3 C80.5,31 75.1,25.7 69.8,20.4 L68,18.6 C66.7,17.3 65.4,16 64.1,14.9 C62.6,13.6 61.4,13 60.2,13.1 C59.2,13.2 58.2,13.8 57.3,14.9 C56.7,15.7 55.9,16.3 55.2,17 C54.9,17.3 54.6,17.6 54.3,17.9 L53.6,18.6 L52.4,17.4 C50.3,19.5 48.1,21.6 46.1,23.8 C39.3,31.3 31,31.3 25.5,28.7 C20.9,26.6 16.5,24.2 12.1,21.7 C11.4,21.3 10,20.5 9.6,20.7 C9.2,20.8 8.7,22.1 8.4,22.5 C8.2,22.9 7.8,23.1 7.3,23.1 L6.3,23.2 L6.1,22.2 C6,21.9 5.9,21.5 6.2,21 C6.8,20 6.7,19.6 6.6,19.5 C6.5,19.2 6,19 5.3,18.8 C4.7,18.7 4.4,18.3 4.2,18 C4.1,17.9 4.1,17.9 4,17.8 L3.9,17.7 L0.7,10.2 L2.8,10.9 C3.6,11.2 4.4,11.4 5.3,11.7 C7.1,12.3 9,12.8 10.8,13.6 C16.1,16 21.6,18.7 27,21.6 C31.7,24.1 36.4,23.3 40,19.6 L40.2,19.4 C43.4,16.1 46.8,12.7 50.2,9.4 C52.9,6.9 56.2,5.6 59.9,5.8 L55.3,2.5 L56.8,0.3 L57.6,0.9 C57.9,1.1 58.3,1.3 58.6,1.6 C59.4,2.1 60.2,2.6 61,3.2 C66.5,7.7 72.1,12.3 77.7,17 C78.2,17.4 78.3,17.9 78.4,18.3 C78.4,18.4 78.5,18.6 78.5,18.7 L78.6,18.9 C78.9,19.4 79.2,19.9 79.6,20.2 C80.1,20.5 80.4,21 80.7,21.4 C81.3,22.3 81.4,22.3 81.9,22 L82.4,21.8 L82.9,22 C83.3,22.2 83.9,22.9 84,23.5 C84.3,25.1 85.8,26.8 87.3,27.1 C88,27.2 88.5,27.8 88.7,28.1 C94,34.9 99.2,41.6 104.4,48.4 C104.7,48.8 105.1,49.6 104.8,50.7 L104.2,52.8 L94.6,39.7 C94.7,40.4 94.7,41 94.7,41.7 C94.6,45.3 93.1,48.6 90.3,51.4 C89.3,52.4 88.3,53.5 87.2,54.5 C85.2,56.5 83.2,58.7 81,60.6 C77.5,63.8 76.8,69.3 79.4,74 C82,78.6 85,84.1 87.5,90 C89.8,95.5 91.6,101.3 93.2,106.7 C94.2,110 97,115.6 104.8,115.2 C107.5,115.1 110.2,115.1 112.8,115 C114,115 115.3,115 116.5,115 C120.9,115 124.6,116.3 127.3,118.9 C130,121.5 131.4,125.2 131.5,129.4 C131.5,132.5 131.6,135.7 131.6,138.8 L133.8,138.8 L133.8,139.8 C133.8,140.8 133.8,141.9 133.8,142.9 C133.8,145.2 133.8,147.5 133.7,149.8 C133.7,152.1 133.6,154.5 133.5,156.9 L133.4,158.9 L136.7,158.3 L137.3,160.7 L136.4,161 C136.2,161.1 135.9,161.2 135.7,161.2 C135.1,161.4 134.5,161.6 133.8,161.7 C133.2,161.8 133.1,161.8 133.1,162.4 C133.1,163.6 132.9,164.9 132.7,166.1 C132.6,166.6 132.6,167.1 132.5,167.6 L132.4,168.6 L129.8,168.3 L130.1,165.3 C127.6,170 123.2,172.6 117.6,172.7 C114.8,172.7 112.1,172.7 109.3,172.7 C107.3,172.7 105.3,172.7 103.3,172.7 C99.4,172.7 95.7,175.5 94.3,179.3 C93.3,182 92.4,184.9 91.6,187.6 C91,189.4 90.4,191.3 89.8,193.1 C89.6,193.7 89.2,194.3 88.9,194.7 C88.8,194.9 88.6,195.1 88.5,195.3 L88.3,195.6 L82.3,198.6 Z M125.5,161.8 L126.3,161.9 L125.6,163.2 C123.9,166.3 121.4,167.8 118.4,167.9 C115.9,168 113.4,168 110.9,168 C108.5,168 106,168 103.6,168.1 C96.5,168.2 90.9,172.7 88.9,179.7 C87.9,183.1 86.8,186.6 85.7,189.9 C85.3,191.2 84.8,192.6 84.4,193.9 C84.2,194.4 84,194.9 83.8,195.3 C83.7,195.4 83.7,195.6 83.6,195.7 L87,194.3 C87.1,194.2 87.2,194 87.3,193.9 C87.6,193.5 87.8,193.1 88,192.8 C88.6,191 89.2,189.2 89.7,187.3 C90.6,184.5 91.5,181.7 92.4,178.9 C94,174.3 98.5,171 103.3,171 C105.3,171 107.3,171 109.3,171 C112.1,171 114.8,171 117.6,171 C123.3,170.9 127.4,167.9 129.3,162.4 C129.4,162 129.7,161.6 129.9,161.3 C130,161.2 130,161.1 130.1,161 C129.8,160.5 129.7,160 129.7,159.6 C129.7,156.5 129.7,153.4 129.7,150.3 C129.7,143.5 129.7,136.5 129.6,129.5 C129.6,125.8 128.3,122.6 126,120.4 C123.7,118.1 120.5,117 116.7,117 C115.4,117 114.2,117 112.9,117 C110.3,117 107.6,117 104.9,117.1 C98.2,117.4 93.2,113.8 91.3,107.1 C89.7,101.7 88,96 85.7,90.6 C83.3,84.8 80.3,79.4 77.7,74.8 C74.6,69.3 75.4,62.8 79.7,58.9 C81.8,57 83.8,54.9 85.8,52.9 C86.8,51.8 87.8,50.8 88.9,49.7 C91.3,47.3 92.6,44.5 92.7,41.4 C92.7,40.3 92.6,39.2 92.4,37.9 C92.3,37.2 92.2,36.5 92.1,35.8 L92.1,35.7 C90.4,33.5 88.7,31.4 87,29.2 C86.9,29.1 86.8,29 86.8,29 C84.6,28.6 82.5,26.3 82,24 C80.3,24.4 79.5,23.1 79,22.4 C78.8,22.1 78.6,21.8 78.5,21.7 C77.8,21.2 77.3,20.5 76.9,19.8 L76.8,19.6 C76.6,19.3 76.5,18.9 76.4,18.6 C76.4,18.5 76.3,18.4 76.3,18.3 C72,14.7 67.7,11.1 63.4,7.6 L63.3,7.6 C62.4,7.9 61.6,7.8 61,7.7 C57.2,7.2 54,8.2 51.5,10.6 C48.1,13.8 44.8,17.2 41.6,20.5 L41.4,20.7 C37.1,25.1 31.5,26 25.9,23 C20.5,20.2 15.1,17.5 9.8,15.1 C8.1,14.3 6.4,13.8 4.5,13.3 C4.4,13.3 4.2,13.2 4.1,13.2 L5.4,16.3 C5.5,16.4 5.5,16.4 5.6,16.5 L5.7,16.6 C7,16.9 7.9,17.5 8.3,18.4 L8.3,18.5 C8.4,18.4 8.5,18.4 8.7,18.3 C9.8,17.9 11,18.5 12.8,19.5 C17.2,21.9 21.6,24.3 26.1,26.4 C31,28.7 38.3,28.7 44.3,22 C46.6,19.4 49.1,17 51.5,14.7 C52.2,14 52.9,13.3 53.6,12.6 C54.3,11.9 55.3,11.5 56.5,11.4 L57.6,11.3 C58.3,10.9 59,10.7 59.7,10.6 C61.9,10.4 63.8,11.8 65.1,12.9 C66.5,14.1 67.8,15.4 69.1,16.7 L70.9,18.5 C76.3,23.8 81.6,29.1 86.9,34.4 C90.3,37.8 90.3,43.2 86.9,46.8 C85.4,48.3 84,49.8 82.5,51.3 C80.4,53.4 78.3,55.5 76.3,57.7 C71.9,62.5 71.3,69.7 74.7,75.8 C76.6,79.2 78.3,82.7 80,86.1 C80.7,87.5 81.4,89 82.1,90.4 C82.2,90.6 82.3,90.8 82.3,91 L82.7,90.8 L83.1,91.9 C83.7,93.7 84.3,95.5 84.9,97.2 C86.2,101 87.3,104.5 88.4,108.1 C90.6,115.5 96.4,119.8 104,119.7 C108.8,119.6 113.2,119.6 117.4,119.7 C122.4,119.7 126.3,123.6 126.3,128.7 C126.3,138.2 126.4,147.7 126.4,157.1 C126.6,160 126.5,161 125.5,161.8 Z" id="Shape" fill-rule="nonzero"></path>
                </g>
                <g transform="translate(9.000000, 142.000000)">
                    <path d="M128.5,177.7 C127.7,177.5 126.9,177.5 126.2,177.2 C122.3,175.3 118.4,173.4 114.5,171.3 C108.7,168.2 104,168.8 99.4,173.5 C96.2,176.8 92.9,180 89.6,183.2 C84.5,188.1 76.7,187.6 71.2,182.2 C65.8,176.8 60.4,171.4 54.9,166.1 C54.5,165.7 53.9,165.6 53.5,165.4 C53.7,165.9 53.7,166.5 54.1,166.9 C59.7,172.4 65.4,177.9 71,183.4 C71.5,183.9 72,184.4 72.3,185 C64.8,179.4 58.3,172.5 51.8,165.7 C52.1,165.5 52.6,165 53.3,164.5 C52.5,163.6 51.7,162.8 50.9,162 C45.1,155.9 45.4,148.1 51.5,142.3 C54.5,139.5 57.4,136.6 60.2,133.6 C64.4,129.2 64.8,124.5 61.8,119.1 C59.5,114.9 57,110.7 55.2,106.2 C52.4,99.3 50.1,92.2 47.6,85.1 C46.1,80.7 42.1,77.5 37.4,77.5 C33.1,77.4 28.7,77.4 24.4,77.5 C18.7,77.6 14.2,75.7 11.3,70.7 C11.2,70.5 11,70.3 10.6,70.2 C11.1,73.6 11.5,77.1 12,80.5 C11.8,80.5 11.6,80.6 11.4,80.6 C11.1,78.4 10.7,76.2 10.4,74 C10.1,71.6 9.8,69.3 9.6,66.9 C9.4,64.6 9.2,62.3 8.9,59.7 C6.4,60.4 4,61 1.6,61.6 C1.5,61.4 1.5,61.3 1.4,61.1 C2.8,60.6 4.2,60.1 5.7,59.7 C5.9,59.6 6.2,59.6 6.4,59.6 C8.2,59.4 9.2,58.7 8.8,56.5 C8.6,55.2 8.6,53.9 9.5,52.4 C10.2,51.2 10.6,48.6 8.9,47 C8.7,46.8 8.6,46.1 8.8,45.9 C10.5,44.2 9.5,42.1 9.5,40.2 C9.5,39.4 9,38.5 9.1,37.7 C9.7,32.2 10.4,26.8 11.1,21.3 C11.1,21.1 11.1,20.9 11,20.8 C11.2,21.2 11.7,21.7 11.6,22.1 C11.4,24.1 11,26.1 11,28.3 C11.3,27.9 11.6,27.6 11.9,27.2 C14.5,23.6 18.1,21.7 22.6,21.7 C27,21.7 31.4,21.6 35.8,21.6 C41.7,21.6 45.9,18.5 47.5,12.7 C48.2,10.3 48.9,7.9 49.6,5.5 C49.7,5.1 50,4.8 50.2,4.4 C51.9,3.7 53.7,2.9 55.4,2.2 C55.4,2.7 55.6,3.3 55.4,3.8 C54.3,7.5 53.1,11.2 52,14.9 C50,21.9 43.8,26.6 36.4,26.6 C31.9,26.6 27.3,26.6 22.8,26.6 C17.7,26.7 14.5,29.7 14.5,34.8 C14.5,40.2 14.5,45.7 14.5,51.1 C14.5,53.3 14.5,55.6 14.6,57.8 C17.7,57.8 20.7,57.8 23.6,57.8 C23.6,58 23.6,58.2 23.6,58.4 C21.5,58.4 19.5,58.4 17.4,58.5 C14.6,58.6 14.6,58.6 14.6,61.4 C14.6,62.3 14.6,63.1 14.6,64 C14.5,68.8 17.8,72.4 22.6,72.4 C27.1,72.4 31.7,72.3 36.2,72.3 C44.4,72.3 50.4,77.1 52.6,84.9 C55.5,95.5 59.4,105.6 65.1,115 C70.5,124 69.1,132.5 61.7,138.9 C58.8,141.4 56.2,144.3 53.6,147.1 C50.9,149.9 50.7,154.2 53.2,157.2 C54.4,158.6 55.8,159.9 57.1,161.2 C57.7,160.9 58.2,160.7 59.1,160.3 C58.5,161.2 58.2,161.6 57.9,162.1 C63.8,167.9 69.6,173.8 75.5,179.4 C78.6,182.4 82.8,182.3 85.9,179.4 C89,176.5 92,173.5 94.8,170.4 C100.5,164.2 107.6,162.5 114.9,166 C120.5,168.7 126,171.5 131.5,174.3 C131.7,174.8 131.9,175.4 132.1,175.9 C131.2,176.5 129.9,177.1 128.5,177.7 Z" id="Path"></path>
                    <path d="M74.8,188 L71.7,185.7 C64.4,180.3 58.1,173.7 52,167.2 L50.3,165.4 L51.8,164.2 L50.2,162.5 C47.2,159.3 45.6,155.7 45.7,151.9 C45.8,148.1 47.6,144.5 50.8,141.4 C53.8,138.6 56.7,135.7 59.4,132.7 C63.2,128.7 63.6,124.5 60.9,119.4 C60.5,118.6 60.1,117.9 59.6,117.1 C57.7,113.7 55.7,110.1 54.2,106.4 C51.8,100.5 49.7,94.3 47.7,88.4 L46.6,85.3 C45.2,81.2 41.5,78.4 37.4,78.3 C32.4,78.2 28.3,78.2 24.4,78.3 C19,78.4 15,76.8 12.1,73.4 L13.1,81.2 L10.5,81.6 L10.3,80.6 C10.2,79.9 10.1,79.3 10,78.6 C9.8,77.1 9.5,75.5 9.3,74 C9,71.6 8.7,69.2 8.5,66.9 C8.3,65.3 8.2,63.7 8,62 L7.9,60.9 L0.9,62.7 L0.1,60.3 L2.2,59.6 C3.3,59.2 4.3,58.9 5.4,58.5 C5.7,58.4 5.9,58.4 6.2,58.4 L6.4,58.4 C7.2,58.3 7.6,58.1 7.8,57.9 C8,57.6 8,57 7.9,56.5 C7.7,55.3 7.6,53.6 8.7,51.7 C9.1,50.9 9.6,48.9 8.3,47.5 C7.9,47.1 7.8,46.5 7.8,46.1 C7.8,45.7 7.9,45.2 8.2,44.9 C9,44.1 9,43.2 8.8,41.7 C8.7,41.1 8.6,40.5 8.7,39.9 C8.7,39.7 8.6,39.3 8.5,39 C8.4,38.5 8.2,37.9 8.3,37.3 C8.7,33.4 9.2,29.5 9.7,25.7 C9.9,24.1 10.1,22.5 10.3,21 L8.2,17.1 L12.2,20 L12.2,20.2 C12.2,20.3 12.3,20.3 12.3,20.4 C12.6,20.8 12.9,21.3 12.9,22 C12.8,22.5 12.8,23.1 12.7,23.6 C12.6,24 12.6,24.5 12.5,24.9 C15.2,21.9 18.7,20.4 22.8,20.4 C24.6,20.4 26.5,20.4 28.3,20.4 C30.9,20.4 33.4,20.4 36,20.4 L36.1,20.4 C41.5,20.4 45.3,17.5 46.7,12.3 C47.3,10.1 48,7.8 48.7,5.6 L48.9,5 C49,4.6 49.2,4.3 49.4,4 C49.5,3.9 49.5,3.8 49.6,3.7 L49.8,3.4 L56.7,0.5 L56.7,2 C56.7,2.1 56.7,2.3 56.7,2.4 C56.7,2.9 56.8,3.4 56.6,3.9 C56.1,5.6 55.6,7.3 55.1,8.9 C54.5,10.9 53.8,12.9 53.3,14.9 C51.1,22.4 44.6,27.3 36.8,27.4 C34.8,27.4 32.8,27.4 30.8,27.4 C28.3,27.4 25.7,27.4 23.2,27.4 C18.6,27.4 15.9,30.1 15.9,34.6 C15.9,38.7 15.9,43 15.9,47 L15.9,50.9 C15.9,52.4 15.9,54 15.9,55.5 L15.9,56.6 L24.9,56.6 L24.8,59.2 L21.9,59.2 C20.5,59.2 19,59.2 17.6,59.3 C16.9,59.3 16.1,59.3 15.9,59.4 C15.8,59.7 15.9,60.4 15.9,61.1 C15.9,62 15.9,62.8 15.9,63.7 C15.8,65.9 16.5,67.8 17.8,69.1 C19.1,70.4 20.8,71.1 22.9,71.1 C25.4,71.1 27.9,71.1 30.3,71.1 C32.3,71.1 34.4,71.1 36.4,71.1 C45,71.1 51.5,76.1 53.8,84.5 C57,96.1 61,105.8 66.2,114.4 C71.8,123.7 70.5,132.6 62.6,139.6 C60.3,141.6 58.1,144 56,146.2 C55.5,146.7 55,147.2 54.6,147.7 C52.3,150.2 52.1,153.9 54.2,156.4 C55,157.4 55.9,158.2 56.8,159.1 C57,159.3 57.3,159.6 57.5,159.8 L62.2,157.7 L59.5,161.8 C61,163.3 62.6,164.8 64.1,166.4 C68.1,170.4 72.3,174.6 76.5,178.6 C79.2,181.2 82.7,181.2 85.5,178.6 C88.5,175.8 91.5,172.8 94.4,169.7 C100.5,163.1 108.1,161.5 115.7,165.1 C119.6,166.9 123.5,168.9 127.2,170.8 C128.9,171.7 130.6,172.5 132.3,173.4 L132.7,173.6 L133.7,176.5 L128.5,178.7 L128.2,178.6 C128,178.6 127.8,178.5 127.5,178.5 C126.9,178.4 126.3,178.3 125.7,178 L124.1,177.2 C120.8,175.6 117.3,173.9 114,172.1 C108.6,169.2 104.3,169.8 100.1,174.1 C97.2,177.1 94,180.3 90.3,183.8 C85.7,188.2 79,188.6 73.4,185.1 L74.8,188 Z M54.7,164.6 C55.1,164.7 55.5,164.9 55.8,165.3 C61.6,171 66.9,176.3 72.1,181.5 C77.3,186.6 84.4,187.1 89.1,182.5 C92.7,179 95.9,175.8 98.9,172.8 C103.7,167.9 109.1,167.1 115.2,170.4 C118.5,172.2 121.9,173.9 125.2,175.5 L126.8,176.3 C127.1,176.5 127.6,176.5 128,176.6 C128.2,176.6 128.3,176.6 128.5,176.7 L131.3,175.5 L131.2,175.2 C129.6,174.4 128,173.6 126.5,172.8 C122.7,170.9 118.9,168.9 115,167.1 C108.2,163.8 101.6,165.3 96.1,171.3 C93.2,174.4 90.2,177.5 87.1,180.3 C83.5,183.6 78.8,183.6 75.3,180.3 C71.1,176.3 66.9,172.1 62.9,168.1 C61.2,166.4 59.5,164.7 57.7,163 L57.1,162.4 L56.8,162.1 C56.4,161.7 56,161.3 55.6,160.9 C54.7,160 53.7,159.1 52.8,158 C50,154.6 50.2,149.8 53.3,146.6 C53.8,146.1 54.3,145.6 54.7,145.1 C56.8,142.8 59.1,140.4 61.5,138.3 C68.6,132.1 69.7,124.1 64.7,115.7 C59.4,107 55.3,97.1 52.1,85.3 C50.1,77.9 44.3,73.5 36.7,73.4 C34.7,73.4 32.6,73.4 30.6,73.4 C28.1,73.4 25.6,73.4 23.1,73.4 C20.5,73.4 18.2,72.4 16.6,70.7 C14.9,69 14.1,66.6 14.1,63.9 C14.1,63 14.1,62.2 14.1,61.4 C14.1,60.2 14.1,59.4 14.3,58.8 L14.1,58.8 L14.1,55.7 C14.1,54.2 14.1,52.6 14.1,51.1 L14.1,47.2 C14.1,43.1 14.1,38.9 14.1,34.7 C14.1,29.1 17.7,25.5 23.4,25.5 C25.9,25.5 28.5,25.5 31,25.5 C33,25.5 35,25.5 37,25.5 C43.9,25.5 49.6,21.1 51.6,14.5 C52.2,12.5 52.8,10.5 53.4,8.4 C53.9,6.8 54.4,5.2 54.9,3.6 L51.4,5.1 C51.4,5.1 51.4,5.1 51.4,5.2 C51.3,5.4 51.2,5.6 51.1,5.7 L50.9,6.3 C50.2,8.5 49.5,10.7 48.9,12.9 C47.2,19 42.6,22.5 36.3,22.5 L36.2,22.5 C33.6,22.5 31.1,22.5 28.5,22.5 C26.7,22.5 24.8,22.5 23,22.5 C18.9,22.5 15.6,24.2 13.2,27.6 C13,27.9 12.8,28.2 12.5,28.4 L11.4,29.7 C11.1,32.3 10.7,35 10.4,37.7 C10.4,37.9 10.5,38.3 10.6,38.6 C10.7,39 10.9,39.6 10.9,40.1 C10.9,40.6 11,41.1 11,41.6 C11.2,43 11.4,44.8 10,46.3 C12,48.4 11.5,51.4 10.6,52.8 C9.8,54.1 9.9,55.2 10,56.2 C10.1,57.1 10.1,57.8 9.9,58.4 L10.2,61.9 C10.4,63.6 10.5,65.2 10.7,66.8 C10.8,67.6 10.9,68.4 10.9,69.2 L11,69.2 C11.6,69.4 12,69.7 12.3,70.2 C14.8,74.6 18.8,76.6 24.5,76.5 C28.4,76.4 32.6,76.4 37.6,76.5 C42.6,76.6 47,79.9 48.7,84.8 L49.8,87.9 C51.8,93.8 53.9,100 56.3,105.8 C57.8,109.4 59.7,112.9 61.6,116.3 C62,117.1 62.5,117.8 62.9,118.6 C66.1,124.4 65.5,129.6 61.1,134.3 C58.3,137.3 55.4,140.2 52.4,143.1 C49.6,145.8 48,148.9 47.9,152.2 C47.8,155.4 49.2,158.6 51.8,161.4 L55,164.7 L54.7,164.6 Z" id="Shape" fill-rule="nonzero"></path>
                </g>
                <g transform="translate(46.000000, 15.000000)">
                    <path d="M192.4,42.9 C193.1,44.7 193.9,46.4 194.6,48.2 C194.1,48.2 193.5,48.3 193,48.2 C188.8,46.9 184.6,45.6 180.4,44.3 C173.4,42.1 168.9,35.1 169.1,28.7 C169.3,23.9 169.1,19 169,14.2 C168.9,10.4 166,7.4 162.2,7 C160.7,6.8 159.1,6.9 157.6,6.9 C148.9,6.9 140.1,7 131.4,7 C126.8,7 123.3,10.3 123.3,14.9 C123.3,19.4 123.3,24 123.3,28.5 C123.3,36.9 118.6,42.9 110.5,45.1 C99.6,48.1 89.2,52.4 79.4,58.1 C71.9,62.5 64.2,61.6 58.1,55.5 C55,52.4 51.9,49.3 48.7,46.2 C47,44.6 45.1,43.8 42.7,43.9 C40,44 38.2,45.6 36.5,47.3 C29.8,54.1 23,60.8 16.4,67.7 C13.1,71.1 13.2,75.4 16.6,78.8 C19.5,81.7 22.4,84.6 25.4,87.4 C32,93.6 33.1,100.9 28.8,108.8 C26.6,112.9 24.5,117.1 22.5,121.3 C21.1,124.3 21.2,123.9 23.9,125.1 C24.4,125.3 24.8,125.9 25.2,126.3 C23.6,125.8 22.1,125.3 20.5,124.8 C19.7,123 18.9,121.2 18,119.4 C20.1,115.1 21.9,110.7 24.2,106.5 C27.2,101 26.7,96 22.3,91.7 C19,88.4 15.6,85.1 12.3,81.7 C10,79.3 8.9,76.4 8.9,73 C8.9,72.2 8.9,71.4 9,70.2 C6.4,73.8 4,76.9 1.7,80.1 L1.7,80.2 C2.5,78.6 3.2,76.8 4.3,75.3 C9,68.9 13.6,62.4 19.5,57 C24.3,52.6 28.6,47.6 33.4,43.2 C35.8,41 38.6,39.3 41.8,37 C41.5,37.9 41.4,38.3 41.2,38.9 C46.5,38.3 50.6,40.6 54.1,44.4 C56.9,47.4 59.9,50.2 62.8,53 C66,56.1 71.2,56.8 75.1,54.5 C84.6,49 94.6,44.6 105.1,41.2 C107.8,40.4 110.6,39.7 113,38.3 C116.2,36.5 118,33.5 118.1,29.7 C118.2,25.4 118.4,21.1 118.1,16.9 C117.5,9.3 122.2,1.5 133.1,1.8 C142.1,2 151.1,1.8 160.1,1.8 C167.5,1.7 173.1,6 174,12.9 C174.4,16.4 174.2,20 174.2,23.5 C174.2,25.6 174.1,27.8 174.3,29.9 C174.7,34.7 178,38.3 183,39.7 C185.7,40.4 188.3,41.2 190.9,42 C191.4,42.2 191.9,42.6 192.4,42.9 Z" id="Path"></path>
                    <path d="M25.6,128.3 L24.5,127.2 L19.7,125.7 L16.9,119.5 L17.1,119.1 C17.7,117.8 18.3,116.5 19,115.1 C20.4,112.1 21.8,109.1 23.4,106.2 C26.2,101 25.7,96.6 21.7,92.6 C18.5,89.5 15.1,86.1 11.7,82.6 C9.4,80.2 8.1,77.2 8,73.6 L2.9,80.5 C2.8,80.6 2.8,80.7 2.7,80.8 L1.7,82.7 L0.6,80.2 L1.1,79.4 C1.3,79 1.4,78.7 1.6,78.3 C2.1,77.1 2.7,75.9 3.5,74.8 C4.1,74 4.7,73.2 5.2,72.4 C9.3,66.9 13.5,61.1 18.7,56.3 C21.2,54 23.6,51.6 25.9,49.2 C28.1,47 30.3,44.7 32.6,42.5 C34.3,40.9 36.2,39.6 38.1,38.2 C39,37.6 40,36.9 41,36.1 L43.6,34.2 L42.4,37.7 C46.9,37.7 50.9,39.6 54.6,43.6 C57.2,46.4 60,49.1 62.7,51.7 L63.3,52.2 C66.3,55 70.9,55.6 74.4,53.6 C84.2,48 94.4,43.5 104.6,40.3 C105.1,40.1 105.7,40 106.3,39.8 C108.4,39.2 110.5,38.5 112.3,37.5 C115.2,35.9 116.8,33.2 116.9,29.8 C116.9,28.9 116.9,28.1 117,27.2 C117.1,23.8 117.2,20.4 116.9,17 C116.6,12.5 118,8.2 120.8,5.2 C123.7,2.2 127.9,0.6 132.9,0.8 C139.9,1 147.1,0.9 154,0.8 C155.9,0.8 157.9,0.8 159.8,0.7 C159.9,0.7 159.9,0.7 160,0.7 C168.1,0.7 173.9,5.4 174.8,12.7 C175.1,15.2 175.1,17.8 175,20.2 C175,21.3 175,22.4 175,23.4 C175,24.1 175,24.8 175,25.6 C175,27 175,28.4 175.1,29.8 C175.5,34.1 178.5,37.4 183,38.7 C185.7,39.5 188.4,40.2 191,41 C191.5,41.2 191.9,41.4 192.3,41.7 C192.4,41.8 192.6,41.9 192.7,42 L193,42.2 L195.9,49.2 L194.4,49.2 C194.3,49.2 194.1,49.2 193.9,49.2 C193.5,49.2 192.9,49.3 192.4,49.1 C188.2,47.8 183.9,46.5 179.8,45.2 C172.7,42.9 167.5,35.8 167.8,28.6 C168,24 167.8,19.3 167.7,14.8 L167.7,14.2 C167.6,10.9 165.2,8.3 161.8,8 C160.6,7.9 159.3,7.9 158.1,7.9 L157.4,7.9 C154.4,7.9 151.4,7.9 148.4,7.9 C142.7,7.9 136.9,8 131.2,7.9 C127.1,7.9 124.1,10.8 124.1,14.7 C124.1,17.5 124.1,20.3 124.1,23.2 C124.1,24.9 124.1,26.6 124.1,28.3 C124.1,37.1 119.1,43.5 110.5,45.9 C99.8,48.8 89.4,53.2 79.7,58.8 C71.8,63.4 63.5,62.4 57.2,56 C54.4,53.2 51.6,50.4 48.8,47.6 L47.9,46.7 C46.5,45.3 44.8,44.6 42.7,44.7 C40.3,44.8 38.7,46.2 37.2,47.8 C34.3,50.8 31.4,53.7 28.5,56.6 C24.7,60.4 20.9,64.3 17.1,68.2 C14.2,71.2 14.3,74.9 17.3,77.9 C20.3,81 23.2,83.8 26,86.5 C32.9,93 34.2,100.8 29.6,109.2 C27.3,113.4 25.3,117.6 23.4,121.6 L23.3,121.8 C23,122.4 22.7,123 22.6,123.3 C22.8,123.4 23.1,123.5 23.4,123.6 C23.7,123.7 24,123.8 24.3,124 C24.9,124.3 25.2,124.7 25.6,125.1 C25.7,125.2 25.7,125.2 25.8,125.3 L26.5,125.5 L25.6,128.3 Z M19.1,119.5 L20.6,122.8 C20.8,122.4 21,121.8 21.3,121.1 L21.4,120.9 C23.3,116.9 25.4,112.6 27.7,108.4 C31.8,100.8 30.7,94.1 24.5,88.2 C21.6,85.5 18.7,82.7 15.7,79.5 C11.9,75.6 11.9,70.7 15.5,66.9 C19.3,63 23.2,59.1 26.9,55.3 C29.8,52.4 32.7,49.4 35.6,46.5 C37.4,44.7 39.4,42.9 42.5,42.7 C45.2,42.6 47.4,43.5 49.3,45.3 L50.2,46.2 C53,49 55.8,51.8 58.6,54.6 C64.3,60.3 71.4,61.2 78.6,57 C88.5,51.3 99,46.9 109.9,43.9 C117.6,41.8 122,36.1 122,28.3 C122,26.6 122,24.9 122,23.2 C122,20.4 122,17.6 122,14.7 C122,9.6 126,5.8 131.1,5.8 C136.8,5.8 142.7,5.8 148.3,5.8 C151.3,5.8 154.3,5.8 157.3,5.8 L158,5.8 C159.3,5.8 160.6,5.8 162,5.9 C166.3,6.3 169.6,9.8 169.7,14.1 L169.7,14.7 C169.8,19.3 170,24 169.8,28.6 C169.5,34.9 174.1,41.1 180.4,43.1 C184.5,44.4 188.7,45.7 192.8,47 L191.3,43.5 C191.2,43.5 191.2,43.4 191.1,43.4 C190.8,43.2 190.5,43 190.3,43 C187.7,42.2 185.1,41.4 182.4,40.7 C177,39.2 173.4,35.2 173,30 C172.9,28.5 172.9,27.1 172.9,25.6 C172.9,24.9 172.9,24.2 172.9,23.5 C172.9,22.4 172.9,21.3 172.9,20.2 C172.9,17.8 173,15.3 172.7,13 C171.9,6.7 166.8,2.7 159.8,2.8 C157.9,2.8 155.9,2.8 154,2.9 C147.1,3 139.9,3.1 132.8,2.9 C128.4,2.8 124.7,4.1 122.2,6.7 C119.8,9.2 118.6,13 118.9,16.9 C119.2,20.4 119.1,23.9 119,27.3 C119,28.1 119,29 118.9,29.8 C118.8,33.9 116.8,37.3 113.3,39.3 C111.3,40.4 109,41.1 106.9,41.8 C106.4,42 105.8,42.1 105.3,42.3 C95.2,45.5 85.2,49.9 75.5,55.5 C71.3,57.9 65.6,57.2 62,53.8 L61.4,53.3 C58.6,50.7 55.8,48 53.2,45.1 C49.5,41.1 45.7,39.4 41.1,39.9 L39.5,40.1 L39.6,39.7 C39.5,39.8 39.4,39.9 39.2,40 C37.3,41.3 35.4,42.6 33.9,44.1 C31.6,46.2 29.4,48.5 27.2,50.7 C24.9,53.1 22.5,55.6 20,57.9 C16.2,61.4 13,65.4 9.9,69.5 L9.8,71.7 C9.8,72.3 9.8,72.8 9.8,73.3 C9.8,76.5 10.8,79.1 12.9,81.2 C16.3,84.7 19.7,88 22.8,91.2 C27.5,95.8 28.2,101.2 24.9,107.2 C23.3,110.1 21.9,113.1 20.6,116 C20.2,117.1 19.7,118.3 19.1,119.5 Z" id="Shape" fill-rule="nonzero"></path>
                </g>
                <g transform="translate(135.000000, 243.000000)">
                    <path d="M2.5,76.7 C3.8,76.1 5.2,75.5 6.5,75 C6.9,74.8 7.4,74.7 7.8,74.5 C8.7,74.6 9.6,74.7 10.5,74.9 C14.8,76.2 19.1,77.7 23.5,79 C30.4,81 35.2,87.1 35.4,94.3 C35.5,99.3 35.5,104.3 35.5,109.3 C35.5,111.7 36.7,113.5 38.5,114.9 C40.5,116.6 42.9,116.5 45.3,116.5 C54.5,116.5 63.7,116.3 72.8,116.4 C77.7,116.4 81.1,113.4 81.2,108.5 C81.3,104 81.2,99.4 81.2,94.9 C81.1,87.4 85.5,81.1 92.4,78.9 C94.8,78.1 97.3,77.5 99.8,76.7 C109.1,73.7 117.9,69.6 126.4,64.7 C132.4,61.2 140.1,62.1 145.2,66.8 C147.1,68.5 148.9,70.4 150.7,72.2 C152.5,74 154.2,75.8 156.1,77.5 C159.2,80.4 163.8,80.4 166.8,77.5 C174,70.4 181.1,63.2 188.1,55.9 C191.6,52.3 191.4,48.1 188,44.5 C185.2,41.7 182.4,38.8 179.5,36.1 C173.2,30.2 171.7,22.7 175.4,15.5 C177.5,11.5 179.5,7.4 181.6,3.4 C181.8,3 182.3,2.7 182.7,2.4 C183.4,4.2 184.2,5.9 184.9,7.7 C184.1,9.5 183.3,11.4 182.4,13.2 C181.4,15.2 180.3,17.1 179.4,19.1 C177.5,23.4 178.7,28.2 182.1,31.5 C185.7,34.9 189.2,38.4 192.6,42 C197.2,46.9 196.6,54.8 191.5,59.9 C184.8,66.6 178.1,73.4 171.4,80.1 C165.1,86.4 157.4,86.3 151.2,79.9 C148.3,76.9 145.3,73.9 142.2,71 C138.5,67.4 133.4,66.7 128.9,69.3 C120.4,74.2 111.5,78.2 102.2,81.4 C99.6,82.3 96.9,82.9 94.3,83.8 C89.6,85.3 86.6,89.3 86.5,94.2 C86.4,98.2 86.4,102.3 86.5,106.3 C86.8,116.2 81.5,121.7 71.6,121.6 C62.6,121.5 53.5,121.6 44.5,121.7 C36.4,121.8 30.7,116.5 30.5,108.4 C30.4,103.8 30.4,99.1 30.5,94.5 C30.5,89.5 26.9,85.3 21.4,83.6 C15.6,81.8 9.9,79.8 4.2,77.8 C3.5,77.6 3,77.1 2.5,76.7 Z" id="Path"></path>
                    <path d="M44.1,122.7 C35.4,122.7 29.5,117 29.4,108.4 C29.3,104.3 29.3,100 29.4,94.4 C29.4,90 26.2,86.1 21.1,84.5 C16.5,83.1 11.9,81.5 7.4,79.9 C6.2,79.5 5,79.1 3.8,78.7 C3.2,78.5 2.8,78.1 2.4,77.8 C2.3,77.7 2.1,77.6 2,77.5 L0.6,76.4 L6.2,74 L7.8,73.4 L8.1,73.4 C8.4,73.4 8.6,73.5 8.9,73.5 C9.6,73.6 10.2,73.7 10.9,73.9 C12.7,74.4 14.4,75 16.2,75.6 C18.7,76.4 21.3,77.3 23.9,78 C31.3,80.2 36.4,86.7 36.5,94.2 C36.6,97.1 36.6,100.1 36.6,103 C36.6,105.1 36.6,107.2 36.6,109.3 C36.6,111.2 37.5,112.7 39.2,114.2 C40.9,115.6 43,115.6 45.2,115.6 L45.3,115.6 C48.4,115.6 51.6,115.6 54.7,115.5 C60.7,115.5 66.8,115.4 72.9,115.4 C77.4,115.4 80.2,112.7 80.2,108.5 C80.3,103.9 80.2,99.1 80.2,94.9 C80.1,86.9 84.8,80.3 92.1,77.9 C93.3,77.5 94.5,77.2 95.7,76.8 C96.9,76.4 98.2,76.1 99.5,75.7 C108.4,72.8 117.3,68.8 125.9,63.8 C132.2,60.1 140.4,61.1 145.9,66 C147.2,67.2 148.5,68.5 149.7,69.7 C150.3,70.3 150.9,70.9 151.4,71.4 C151.9,71.9 152.5,72.5 153,73 C154.2,74.2 155.5,75.5 156.7,76.6 C159.4,79.1 163.4,79.1 165.9,76.6 C174.3,68.2 181.1,61.4 187.2,55.1 C190.3,51.9 190.2,48.4 187.1,45.1 C184,41.9 181.3,39.2 178.6,36.8 C171.9,30.6 170.4,22.6 174.3,15 L176.2,11.3 C177.6,8.5 179,5.7 180.5,2.9 C180.7,2.4 181.1,2.1 181.5,1.9 C181.6,1.8 181.7,1.7 181.8,1.6 L182.9,0.6 L185.9,7.7 L185.7,8.1 C185.5,8.7 185.2,9.2 185,9.8 C184.5,11.1 183.9,12.4 183.3,13.6 C182.9,14.4 182.4,15.3 182,16.1 C181.4,17.2 180.8,18.3 180.3,19.4 C178.6,23.3 179.6,27.6 182.8,30.7 C186,33.8 189.7,37.4 193.4,41.3 C198.3,46.6 197.8,55.1 192.3,60.7 L188.2,64.8 C182.9,70.2 177.5,75.5 172.2,80.9 C168.9,84.1 165.2,85.9 161.5,85.9 L161.4,85.9 C157.6,85.9 153.8,84.1 150.6,80.7 C147.5,77.5 144.3,74.4 141.6,71.8 C138.1,68.5 133.6,67.9 129.5,70.3 C120.9,75.3 111.8,79.4 102.6,82.4 C101.2,82.9 99.8,83.3 98.4,83.7 C97.2,84.1 95.9,84.4 94.7,84.8 C90.3,86.2 87.7,89.8 87.6,94.3 L87.6,94.5 C87.5,98.4 87.5,102.4 87.6,106.4 C87.8,111.6 86.4,115.7 83.7,118.6 C80.9,121.4 76.9,122.8 71.7,122.8 C63,122.7 54.2,122.8 44.6,122.9 C44.2,122.7 44.1,122.7 44.1,122.7 Z M4.6,76.9 C5.7,77.3 6.8,77.7 8,78.1 C12.4,79.6 17,81.2 21.6,82.6 C27.6,84.4 31.4,89.1 31.4,94.5 C31.4,100.1 31.4,104.4 31.4,108.4 C31.5,115.9 36.7,120.8 44.3,120.7 C53.9,120.6 62.8,120.5 71.5,120.6 C71.6,120.6 71.6,120.6 71.7,120.6 C76.2,120.6 79.7,119.4 82,117 C84.4,114.6 85.5,111 85.4,106.3 C85.3,102.3 85.3,98.2 85.4,94.3 L85.4,94.1 C85.5,88.7 88.7,84.4 93.9,82.7 C95.1,82.3 96.4,81.9 97.7,81.6 C99.1,81.2 100.5,80.8 101.8,80.3 C110.9,77.3 119.8,73.2 128.4,68.3 C133.3,65.5 138.9,66.2 143,70.1 C145.7,72.7 148.9,75.8 152,79 C154.9,82 158.1,83.5 161.3,83.6 C164.6,83.6 167.8,82.1 170.7,79.2 C176.1,73.9 181.4,68.5 186.7,63.1 L190.8,59 C195.6,54.2 196.1,46.9 191.9,42.5 C188.3,38.7 184.6,35.1 181.4,32 C177.6,28.4 176.4,23 178.5,18.4 C179,17.2 179.7,16 180.3,14.9 C180.7,14.1 181.2,13.3 181.6,12.5 C182.2,11.3 182.8,10 183.3,8.8 C183.5,8.4 183.7,7.9 183.9,7.5 L182.5,4.1 C181.1,6.8 179.8,9.4 178.4,12.1 L176.5,15.8 C173,22.7 174.4,29.6 180.4,35.2 C183,37.7 185.8,40.4 188.9,43.6 C192.8,47.6 192.9,52.4 189,56.4 C182.9,62.7 176.1,69.6 167.7,78 C164.4,81.3 159.2,81.3 155.6,78 C154.3,76.8 153,75.5 151.8,74.3 C151.3,73.8 150.7,73.2 150.2,72.7 C149.6,72.1 149,71.5 148.4,70.9 C147.2,69.7 146,68.4 144.7,67.3 C139.9,62.9 132.7,62.1 127.1,65.3 C118.4,70.3 109.4,74.4 100.3,77.4 C99,77.8 97.7,78.2 96.4,78.6 C95.2,78.9 94,79.3 92.9,79.6 C86.5,81.7 82.4,87.6 82.4,94.6 C82.4,98.8 82.5,103.6 82.4,108.2 C82.3,113.6 78.5,117.1 73,117.1 C72.3,117.1 71.6,117.1 70.9,117.1 C65.5,117.1 60.1,117.1 54.8,117.2 C51.7,117.2 48.5,117.2 45.4,117.3 L45.3,117.3 C42.9,117.3 40.2,117.3 38,115.5 C35.8,113.7 34.7,111.6 34.6,109.1 C34.6,107 34.6,104.9 34.6,102.8 C34.6,99.9 34.6,97 34.5,94.1 C34.4,87.4 29.9,81.7 23.3,79.8 C20.7,79 18.1,78.2 15.6,77.4 C13.9,76.8 12.1,76.3 10.4,75.7 C9.9,75.5 9.4,75.5 8.8,75.4 C8.6,75.4 8.4,75.4 8.2,75.3 L7.1,75.7 L4.6,76.9 Z" id="Shape" fill-rule="nonzero"></path>
                </g>
                <g transform="translate(57.000000, 132.000000)">
                    <path d="M7,2.4 C7.8,4.2 8.6,6 9.5,7.8 C8.9,9.2 8.4,10.5 7.8,11.9 C6.1,12.6 4.3,13.4 2.6,14.1 C3.2,12.2 3.6,10.3 4.3,8.5 C5,6.4 6.1,4.5 7,2.4 Z" id="Path"></path>
                    <path d="M0.9,15.9 L1.5,13.8 C1.7,13.2 1.8,12.7 2,12.1 C2.4,10.8 2.7,9.4 3.2,8.1 C3.8,6.6 4.5,5.2 5.1,3.8 C5.4,3.2 5.7,2.6 6,2 L6.9,0 L10.5,7.8 L8.5,12.7 L0.9,15.9 Z M7,4.9 C6.4,6.2 5.7,7.6 5.2,8.9 C4.8,10 4.4,11.2 4.1,12.4 L7,11.2 L8.4,7.9 L7,4.9 Z" id="Shape" fill-rule="nonzero"></path>
                </g>
                <g transform="translate(247.000000, 25.000000)" id="Path">
                    <path d="M33.6,15.6 C31.6,14.6 29.7,13.5 27.7,12.5 C23,10.2 18.2,8 13.5,5.7 C12.4,5.1 11.8,5.4 11.3,6.6 C8.7,13 6.1,19.4 3.4,25.8 C3.2,26.4 2.9,27 2.7,27.6 C2.5,27.5 2.4,27.5 2.2,27.4 C2.4,26.9 2.5,26.3 2.7,25.8 C5.2,19.6 7.7,13.4 10.3,7.2 C11,5.6 11.4,4.3 9.2,3.8 C9.1,3.8 9,3.6 8.7,3.1 C9.8,3.4 10.6,3.7 11.5,3.9 C11.9,3.2 12.3,2.6 12.7,1.9 C12.8,1.9 12.9,2 13,2 C12.8,2.7 12.6,3.4 12.5,4.1 C19.7,7.6 26.9,11.1 34.1,14.6 C33.8,15.1 33.7,15.4 33.6,15.6 Z"></path>
                    <path d="M3.2,28.9 L0.8,28.1 L1.3,26.6 C1.4,26.2 1.5,25.8 1.7,25.5 L3.4,21.3 C5.3,16.6 7.3,11.7 9.3,6.9 C9.5,6.5 9.9,5.5 9.7,5.3 C9.7,5.3 9.6,5.1 8.8,4.9 C8.3,4.8 8.1,4.4 8,4.2 C7.9,4.1 7.9,4 7.8,3.8 L6,1.3 L11,2.7 L12.2,0.7 L14.2,1.3 L13.6,3.6 L35.4,14.2 L34,17 L33,16.5 C32.4,16.2 31.8,15.9 31.2,15.5 C29.9,14.8 28.5,14.1 27.2,13.4 C24.7,12.2 22.2,11 19.7,9.8 C17.4,8.7 15.2,7.6 12.9,6.6 C12.6,6.4 12.4,6.4 12.4,6.4 C12.4,6.4 12.3,6.5 12.1,7 C10.2,11.8 8.2,16.6 6.3,21.3 L3.2,28.9 Z"></path>
                </g>
                <g transform="translate(340.000000, 94.000000)" id="Path">
                    <path d="M14.2,29.9 C11.8,30.8 9.5,31.8 7.1,32.7 C7,32.6 7,32.4 6.9,32.3 C9.1,31.3 11.2,30.4 13.5,29.4 C9.6,20.1 5.8,11 2,1.9 C2.2,1.8 2.5,1.7 2.7,1.6 C6.6,10.7 10.5,19.8 14.6,29.4 C16.8,28.2 18.7,27.1 20.6,26.1 C20.7,26.4 20.8,26.7 21,27 C18.8,28 16.7,29 14.5,29.9 C14.4,29.8 14.3,29.9 14.2,29.9 Z"></path>
                    <polygon points="6.6 34 5.6 31.8 12.2 28.9 0.7 1.4 3.3 0.3 15.1 28 21.1 24.7 22.3 27.5 14.8 30.9 14.7 30.9 14.6 30.9"></polygon>
                </g>
                <g transform="translate(24.000000, 114.000000)" id="Path">
                    <path d="M1.4,27.1 C3.3,21.8 5.1,16.5 7.1,11.1 C6.4,10.7 5.8,10.4 5.1,10 C5.1,9.9 5.1,9.8 5.2,9.7 C5.9,9.9 6.6,10.1 7.5,10.3 C8.9,7.5 10.2,4.6 11.6,1.7 C11.7,1.7 11.9,1.8 12,1.8 C11.7,2.6 11.5,3.4 11.1,4.2 C10.4,5.8 9.6,7.4 8.8,9 C8.1,10.3 8.5,10.9 9.8,11.5 C16.2,14 22.5,16.7 28.9,19.3 C29.5,19.5 30.1,19.8 30.7,20 C30.6,20.2 30.6,20.3 30.5,20.5 C29.9,20.3 29.3,20.2 28.8,19.9 C22.7,17.4 16.5,14.9 10.4,12.4 C7.8,11.3 7.7,11.3 6.7,14.1 C5.4,17.7 4.2,21.3 2.9,24.9 C2.6,25.8 2.2,26.6 1.8,27.5 C1.7,27.2 1.6,27.1 1.4,27.1 Z"></path>
                    <path d="M2.5,28.6 L0.1,27.7 L5.8,11.5 L3.9,10.4 L4.3,8.3 L6.8,8.9 L10.9,0.2 L13.1,1 L12.8,2 C12.7,2.2 12.6,2.5 12.6,2.7 C12.4,3.3 12.2,3.9 12,4.4 C11.4,5.8 10.6,7.6 9.7,9.3 C9.5,9.8 9.5,9.9 9.5,9.9 C9.5,9.9 9.6,10.1 10.2,10.3 C14.9,12.2 19.7,14.2 24.3,16 L31.9,19.1 L31.1,21.5 L29.6,21 C29.2,20.9 28.8,20.7 28.4,20.6 C24.5,19 20.5,17.4 16.6,15.8 L10,13.1 C9.3,12.8 8.7,12.5 8.4,12.5 C8.2,12.8 7.9,13.6 7.7,14.2 C6.9,16.4 6.2,18.5 5.4,20.7 C4.9,22.1 4.4,23.5 3.9,25 C3.7,25.6 3.4,26.2 3.2,26.9 C3.1,27.2 3,27.4 2.9,27.7 L2.5,28.6 Z"></path>
                </g>
                <g transform="translate(33.000000, 264.000000)" id="Path">
                    <path d="M19.8,33.4 C18.5,31.6 17,29.8 15.8,27.9 C13.1,23.7 10.9,19 7.7,15.2 C5,12 4.3,8.1 2.4,4.7 C2.2,4.3 2.1,3.9 1.9,3.5 C1.9,3.4 2,3.3 2.2,2.9 C7.4,13.6 13.5,23.5 20.4,33 C20.2,33.1 20,33.2 19.8,33.4 Z"></path>
                    <path d="M19.6,34.8 L19,34 C18.6,33.4 18.2,32.9 17.7,32.3 C16.8,31.1 15.8,29.8 14.9,28.4 C14,26.9 13.1,25.4 12.2,24 C10.6,21.2 8.9,18.3 6.9,15.9 C5.1,13.8 4.2,11.5 3.3,9.2 C2.7,7.8 2.2,6.5 1.5,5.3 C1.3,4.9 1.1,4.4 1,4.1 L1,4 C0.9,3.6 1,3.2 1.1,3 C1.1,2.9 1.2,2.8 1.2,2.7 L2.1,0.6 L3.1,2.7 C8.2,13.1 14.1,22.9 21.2,32.6 L21.8,33.5 L19.6,34.8 Z"></path>
                </g>
                <g transform="translate(316.000000, 239.000000)">
                    <path d="M3.7,11.7 C3,9.9 2.2,8.2 1.5,6.4 C1.8,5.7 2.1,5.1 2.4,4.4 C4.1,3.7 5.9,2.9 7.6,2.2 C7.7,2.3 7.8,2.4 7.8,2.5 C6.5,5.6 5.1,8.6 3.7,11.7 Z" id="Path"></path>
                    <path d="M3.7,14.3 L0.4,6.4 L1.6,3.6 L7.9,0.9 L8.4,1.5 C8.8,1.9 8.9,2.4 8.7,2.8 C7.5,5.5 6.3,8.2 5.1,11 L3.7,14.3 Z M2.6,6.4 L3.7,9.1 C4.5,7.4 5.2,5.7 6,3.9 L3.1,5.1 L2.6,6.4 Z" id="Shape" fill-rule="nonzero"></path>
                </g>
                <g transform="translate(22.000000, 229.000000)" id="Path">
                    <path d="M9.1,30.4 C7.4,26 5.9,21.4 3.9,17.1 C2.2,13.7 2.2,10 1.8,6.3 C2,6.8 2.3,7.2 2.5,7.7 C4.3,13.2 5.9,18.8 7.8,24.3 C8.5,26.2 9.6,28 10.5,29.9 C10,30.1 9.5,30.2 9.1,30.4 Z"></path>
                    <path d="M8.5,31.8 L8.1,30.8 C7.6,29.5 7.1,28.1 6.6,26.7 C5.5,23.6 4.3,20.5 2.9,17.6 C1.5,14.7 1.2,11.7 0.9,8.8 C0.8,8 0.8,7.3 0.7,6.5 L2.84217094e-14,0.3 L2.7,5.9 C2.8,6 2.8,6.2 2.9,6.3 C3.1,6.6 3.3,7 3.4,7.4 C4,9.2 4.5,11 5.1,12.8 C6.2,16.5 7.4,20.2 8.7,23.9 C9.1,25.1 9.8,26.3 10.4,27.6 C10.7,28.2 11,28.8 11.3,29.4 L11.8,30.4 L8.5,31.8 Z"></path>
                </g>
                <g transform="translate(377.000000, 197.000000)" id="Path">
                    <path d="M9.4,4.7 C6.6,5.8 4.1,6.7 1.5,7.7 C1.4,7.5 1.3,7.3 1.3,7.2 C5.5,5.4 9.6,3.6 13.8,1.9 C13.9,2.1 14,2.2 14,2.4 C12.8,3.1 11.5,3.7 10.1,4.5 C11.9,8.9 13.7,13.3 15.5,17.6 C15.3,17.7 15.1,17.8 14.8,17.9 C13.1,13.4 11.3,9.1 9.4,4.7 Z"></path>
                    <polygon points="14.4 19.1 8.8 6 1 9 0 6.6 14.3 0.5 15.5 2.7 11.5 4.8 16.9 18"></polygon>
                </g>
                <g transform="translate(361.000000, 143.000000)" id="Path">
                    <path d="M2,3.6 C2.9,7.6 3.8,11.6 4.5,15.6 C5.3,20.2 5.9,24.8 6.6,29.3 C6.6,29.5 6.5,29.7 6.5,29.9 C6.2,30 5.9,30.1 5.6,30.2 C5.7,29.9 5.8,29.5 5.8,29.2 C4.2,20.9 2.6,12.5 1,4.2 C0.9,3.7 1.1,3.1 1.1,2.6 C1.3,2.8 1.5,2.9 1.7,3.1 C2,3.3 2,3.4 2,3.6 Z"></path>
                    <path d="M4.4,31.8 L4.7,30.1 C4.7,30 4.8,29.8 4.8,29.7 C4.8,29.6 4.9,29.5 4.9,29.4 C4.2,25.6 3.5,21.8 2.7,18 C1.8,13.5 1,9 0.1,4.5 C0,4 0.1,3.5 0.1,3 C0.1,2.8 0.1,2.7 0.2,2.5 L0.4,0.7 L2.8,2.5 L3,3.4 C3.3,4.6 3.5,5.8 3.8,7 C4.4,9.7 5,12.6 5.5,15.4 C6.1,18.7 6.6,22.1 7.1,25.4 C7.3,26.7 7.5,27.9 7.7,29.2 C7.8,29.5 7.7,29.8 7.6,30 L7.5,30.7 L4.4,31.8 Z"></path>
                </g>
                <g transform="translate(312.000000, 291.000000)" id="Path">
                    <path d="M5.4,24.9 C11.5,17.7 17.5,10.6 23.4,3.6 C23.3,5.6 8.8,22.9 5.4,24.9 Z"></path>
                    <path d="M0.7,28.9 L24.5,0.8 L24.4,3.8 C24.3,6.5 9.1,24 5.9,25.9 L0.7,28.9 Z"></path>
                </g>
                <g transform="translate(134.000000, 18.000000)" id="Path">
                    <path d="M28,1.9 C19,4.3 10.1,6.7 1.1,9.1 C9.8,5.5 18.8,3.3 28,1.9 Z"></path>
                    <path d="M1.4,10 L0.7,8.1 C8.6,4.8 17.5,2.5 27.8,0.9 L28.2,2.9 L1.4,10 Z"></path>
                </g>
                <g transform="translate(166.000000, 364.000000)" id="Path">
                    <path d="M29,3.4 C19.7,3.8 10.4,3.3 1.2,1.4 C10.4,2 19.7,2.7 29,3.4 Z"></path>
                    <path d="M23,4.5 C15.3,4.5 8,3.8 0.9,2.4 L1.2,0.4 L29,2.4 L29,4.4 C27,4.5 25,4.5 23,4.5 Z"></path>
                </g>
                <g transform="translate(207.000000, 361.000000)" id="Path">
                    <path d="M1,5.7 C10.2,4.2 19.3,2.7 28.5,1.2 C19.6,3.8 10.4,5.4 1,5.7 Z"></path>
                    <path d="M1.1,6.7 L0.9,4.7 L28.4,0.2 L28.9,2.2 C19.3,4.9 10.2,6.4 1.1,6.7 Z"></path>
                </g>
                <g transform="translate(97.000000, 31.000000)" id="Path">
                    <path d="M1.4,14.1 C9,8.7 17.1,4.3 25.8,0.9 C17.7,5.3 9.5,9.7 1.4,14.1 Z"></path>
                    <path d="M1.8,15 L0.7,13.3 C8.1,8 16.4,3.5 25.4,0 L26.3,1.9 L1.8,15 Z"></path>
                </g>
                <g transform="translate(284.000000, 324.000000)" id="Path">
                    <path d="M1.3,17.3 C8.8,11.8 16.3,6.3 23.8,0.8 C17,7.2 9.4,12.6 1.3,17.3 Z"></path>
                    <path d="M1.8,18.2 L0.7,16.5 L23.2,0 L24.5,1.6 C17.9,7.8 10.5,13.2 1.8,18.2 Z"></path>
                </g>
                <g transform="translate(341.000000, 258.000000)" id="Path">
                    <path d="M14.3,0.8 C11,9.4 7,17.7 1.8,25.4 C6,17.2 10.2,9 14.3,0.8 Z"></path>
                    <path d="M2.7,26 L0.9,25 L13.4,0.4 L15.3,1.2 C11.7,10.6 7.6,18.7 2.7,26 Z"></path>
                </g>
                <g transform="translate(356.000000, 226.000000)" id="Path">
                    <path d="M9,0.9 C7.6,10.1 4.9,19 1.3,27.6 C3.9,18.7 6.5,9.8 9,0.9 Z"></path>
                    <path d="M2.3,28 L0.4,27.3 L8.1,0.6 L10.1,1 C8.7,9.7 6.2,18.5 2.3,28 Z"></path>
                </g>
                <g transform="translate(127.000000, 353.000000)" id="Path">
                    <path d="M0.9,1.7 C9.7,4.5 18.5,7.2 27.3,10 C18.1,8.3 9.4,5.3 0.9,1.7 Z"></path>
                    <path d="M27.1,10.9 C19.1,9.5 10.6,6.9 0.5,2.6 L1.2,0.7 L27.6,9 L27.1,10.9 Z"></path>
                </g>
                <g transform="translate(330.000000, 246.000000)" id="Path">
                    <path d="M1.7,1.5 C10.1,4.9 18.5,8.4 26.9,11.8 C26.9,11.9 26.8,12 26.8,12.1 C18.4,8.7 10,5.2 1.6,1.8 C1.7,1.7 1.7,1.6 1.7,1.5 Z"></path>
                    <polygon points="27.4 13.4 0.3 2.3 1.2 0.1 28.3 11.2"></polygon>
                </g>
                <g transform="translate(124.000000, 328.000000)" id="Path">
                    <path d="M12,1.8 C8.6,10.2 5.1,18.6 1.7,27 C1.6,27 1.5,26.9 1.4,26.9 C4.8,18.5 8.3,10.1 11.7,1.7 C11.8,1.7 11.9,1.7 12,1.8 Z"></path>
                    <polygon points="2.3 28.3 0.1 27.4 11.1 0.3 13.3 1.2"></polygon>
                </g>
                <g transform="translate(93.000000, 336.000000)" id="Path">
                    <path d="M2.4,1.3 C4.4,2.5 6.4,3.6 8.4,4.8 C12.8,7.3 17.3,9.8 21.7,12.2 C22.1,12.4 22.5,12.7 23,13.1 C22.6,13.2 22.4,13.4 22.3,13.3 C15.9,9.7 9.6,6 3.2,2.4 C2.9,2.2 2.7,1.7 2.4,1.3 Z"></path>
                    <path d="M22.3,14.4 C22.1,14.4 21.9,14.4 21.8,14.3 C14.7,10.3 8.7,6.9 2.7,3.4 C2.2,3.1 2,2.6 1.8,2.2 L0.4,1.4 L2.9,0.1 L3.3,0.8 L4.8,1.7 C6.2,2.5 7.5,3.3 8.9,4.1 C11.5,5.6 14.1,7 16.7,8.5 C18.5,9.5 20.4,10.5 22.2,11.6 C22.5,11.8 22.8,12 23.1,12.2 C23.2,12.3 23.4,12.4 23.6,12.5 L25.3,13.7 L23.3,14.4 C23.2,14.4 23.1,14.5 23,14.5 C22.9,14.3 22.6,14.4 22.3,14.4 Z"></path>
                </g>
                <g transform="translate(220.000000, 18.000000)">
                    <path d="M2.4,1.8 C2.7,1.6 3,1.3 3.2,1.3 C9.9,2.8 16.5,4.4 23.1,5.9 C23.2,5.9 23.2,6.1 23.5,6.4 C16.3,4.8 9.3,3.3 2.4,1.8 C2.4,1.7 2.4,1.8 2.4,1.8 Z" id="Path"></path>
                    <path d="M25.8,8 L2.6,2.8 L1.8,3.3 L0.9,0.3 L2.2,0.6 C2.5,0.4 2.9,0.2 3.4,0.3 C10.1,1.8 16.7,3.4 23.3,4.9 C23.8,5 24,5.4 24.1,5.6 C24.1,5.7 24.2,5.8 24.3,5.9 L25.8,8 Z" id="Shape" fill-rule="nonzero"></path>
                </g>
                <g transform="translate(358.000000, 130.000000)" id="Path">
                    <path d="M5,16.6 C5,16.4 4.9,16.2 4.9,16 C3.9,13.9 2.9,11.7 2,9.6 C1.8,9 1.8,8.3 1.7,7.4 C3.8,12.3 5.9,17 7.9,21.6 C7.8,21.6 7.8,21.7 7.7,21.7 C6.9,20.1 6,18.4 5,16.6 Z"></path>
                    <path d="M7.4,23.2 L4.1,16.8 L4,16.4 L3.3,14.8 C2.6,13.3 1.9,11.7 1.2,10.1 C1,9.5 0.9,9 0.9,8.4 C0.9,8.2 0.9,7.9 0.8,7.6 L-1.13686838e-13,0.7 L9.4,22.2 L7.4,23.2 Z"></path>
                </g>
                <g transform="translate(314.000000, 31.000000)" id="Path">
                    <path d="M7.7,16.1 C5.7,11.4 3.8,6.7 1.8,1.9 C2,1.8 2.1,1.8 2.3,1.7 C4.3,6.4 6.2,11.1 8.2,15.9 C8,16 7.8,16 7.7,16.1 Z"></path>
                    <polygon points="7.1 17.4 0.4 1.4 2.8 0.4 9.5 16.5"></polygon>
                </g>
                <g transform="translate(367.000000, 157.000000)" id="Path">
                    <path d="M7.3,15.8 C5.3,11.1 3.4,6.4 1.4,1.8 C1.5,1.8 1.6,1.7 1.7,1.7 C3.6,6.4 5.6,11.1 7.5,15.8 C7.5,15.7 7.4,15.8 7.3,15.8 Z"></path>
                    <polygon points="7 17 6.4 16.2 0.1 1.2 2.3 0.3 8.9 16.3"></polygon>
                </g>
                <g transform="translate(323.000000, 52.000000)" id="Path">
                    <path d="M7.7,15.9 C5.8,11.2 3.9,6.5 2,1.8 C1.9,1.8 1.8,1.9 1.7,1.9 C3.7,6.6 5.6,11.3 7.7,15.9 C7.6,15.9 7.7,15.9 7.7,15.9 Z"></path>
                    <polygon points="7 17.2 0.4 1.3 2.6 0.4 9.1 16.5"></polygon>
                </g>
                <g transform="translate(332.000000, 73.000000)" id="Path">
                    <path d="M1.5,1.8 C3.5,6.5 5.5,11.2 7.6,15.9 C5.7,11.2 3.7,6.4 1.8,1.7 C1.7,1.7 1.6,1.7 1.5,1.8 Z"></path>
                    <polygon points="7 17.2 6.6 16.3 0.2 1.3 1.1 0.9 1.5 1.8 1.5 1.8 1.1 0.8 2.3 0.3 8.9 16.4"></polygon>
                </g>
                <g transform="translate(376.000000, 178.000000)" id="Path">
                    <path d="M1.6,1.7 C3.5,6.4 5.4,11.1 7.4,15.7 C7.3,15.7 7.3,15.8 7.2,15.8 C5.2,11.1 3.3,6.5 1.3,1.8 C1.4,1.7 1.5,1.7 1.6,1.7 Z"></path>
                    <polygon points="6.7 17.1 6.2 16.2 0 1.3 2.2 0.3 8.7 16.2"></polygon>
                </g>
                <g transform="translate(245.000000, 352.000000)" id="Path">
                    <path d="M16.1,1.7 C14,2.7 11.9,3.7 9.7,4.6 C8,5.3 6.2,5.9 4.4,6.6 C4,6.7 3.5,6.7 3,6.3 C6.2,5.1 9.3,3.9 12.5,2.8 C13.7,2.3 14.9,2.1 16.1,1.7 Z"></path>
                    <path d="M3.9,7.6 C3.5,7.6 2.9,7.5 2.3,7.1 L0.8,6 L5.3,4.3 C7.6,3.4 9.9,2.6 12.2,1.8 C13,1.5 13.9,1.3 14.7,1.1 C14.9,1 15.1,1 15.4,0.9 C15.5,0.9 15.6,0.8 15.7,0.8 L16.7,0.4 L17.6,2.5 L16.5,2.8 C16.4,2.8 16.3,2.9 16.2,2.9 C15.7,3.1 15.2,3.4 14.7,3.6 C13.2,4.3 11.7,5 10.2,5.6 C8.6,6.3 6.9,6.9 5.3,7.4 L4.8,7.6 C4.5,7.6 4.2,7.6 3.9,7.6 Z"></path>
                </g>
                <g transform="translate(303.000000, 42.000000)" id="Path">
                    <path d="M13.7,1.9 C9.8,4 5.9,6.1 1.9,8.3 C1.8,8.2 1.7,8 1.7,7.9 C5.3,5.1 9.3,3.2 13.7,1.9 Z"></path>
                    <path d="M1.5,9.6 L0.3,7.5 L1,7 C4.5,4.4 8.5,2.4 13.3,0.9 L14.1,2.8 L1.5,9.6 Z"></path>
                </g>
                <g transform="translate(259.000000, 345.000000)" id="Path">
                    <path d="M2.1,8.7 C2.2,8.6 2.2,8.3 2.3,8.3 C6.1,6.5 9.9,4.8 14,2.8 C13.8,3.4 13.7,3.7 13.6,3.8 C10.1,5.4 6.5,7.1 3,8.7 C2.7,8.8 2.4,8.7 2.1,8.7 Z"></path>
                    <path d="M2.2,11.6 L0.6,7.6 L1.5,7.6 C1.6,7.5 1.7,7.4 1.9,7.3 C5.4,5.7 8.9,4 12.6,2.3 L15.9,0.8 L14.9,3.2 C14.8,3.4 14.8,3.6 14.7,3.7 C14.6,4.1 14.4,4.5 13.9,4.8 C10.5,6.4 6.9,8 3.2,9.7 C3,9.8 2.9,9.8 2.7,9.8 L2.2,11.6 Z"></path>
                </g>
                <g transform="translate(324.000000, 128.000000)" id="Path">
                    <path d="M16,1.3 C11.3,3.2 6.7,5.2 2,7.1 C2,7.2 2.1,7.3 2.1,7.4 C6.8,5.5 11.4,3.6 16.1,1.7 C16.1,1.6 16,1.4 16,1.3 Z"></path>
                    <polygon points="1.6 8.7 0.6 6.5 16.5 0 17.5 2.2"></polygon>
                </g>
                <g transform="translate(263.000000, 0.000000)" id="Path">
                    <path d="M1.7,14.6 C3.4,10.4 5.2,6.1 6.9,1.9 C7,1.9 7.1,2 7.2,2 C5.5,6.2 3.7,10.5 2,14.7 C1.8,14.7 1.8,14.6 1.7,14.6 Z"></path>
                    <polygon points="2.5 16.1 0.3 15.2 6.3 0.6 8.5 1.4"></polygon>
                </g>
                <g transform="translate(2.000000, 111.000000)" id="Path">
                    <path d="M2.1,2.3 C6.3,4 10.5,5.7 14.7,7.5 C14.7,7.6 14.6,7.7 14.6,7.8 C10.4,6.1 6.2,4.4 2,2.6 C2,2.5 2,2.4 2.1,2.3 Z"></path>
                    <polygon points="15.2 9.1 0.7 3.1 1.5 0.9 16 6.9"></polygon>
                </g>
                <g transform="translate(353.000000, 122.000000)" id="Path">
                    <path d="M1.2,1.9 C1.3,1.9 1.4,1.8 1.5,1.8 C1.9,2.4 2.4,3 2.7,3.7 C3.7,6.1 4.6,8.5 5.5,10.8 C5.3,10.9 5.1,11 4.9,11 C4.3,9.8 3.6,8.6 3.1,7.4 C2.5,5.7 1.9,3.8 1.2,1.9 Z"></path>
                    <path d="M4.5,12.4 L4.1,11.5 C3.9,11.1 3.7,10.8 3.5,10.4 C3.1,9.6 2.6,8.7 2.3,7.8 C1.8,6.5 1.3,5.2 0.9,3.9 C0.7,3.3 0.5,2.8 0.3,2.2 L0,1.3 L0.9,0.9 C1,0.8 1.2,0.8 1.3,0.7 L2,0.5 L2.4,1.1 C2.5,1.3 2.7,1.5 2.8,1.6 C3.1,2.1 3.5,2.5 3.7,3.1 C4.4,4.8 5.1,6.6 5.7,8.3 L6.8,11.2 L4.5,12.4 Z"></path>
                </g>
                <g transform="translate(113.000000, 365.000000)" id="Path">
                    <path d="M2.3,14.5 C4,10.4 5.7,6.3 7.3,2.2 C7.4,2.2 7.5,2.3 7.5,2.3 C5.8,6.4 4.1,10.5 2.5,14.6 C2.4,14.5 2.3,14.5 2.3,14.5 Z"></path>
                    <polygon points="3.1 15.9 0.9 15 6.7 0.8 8.9 1.8"></polygon>
                </g>
                <g transform="translate(367.000000, 261.000000)" id="Path">
                    <path d="M2.3,1.9 C6.4,3.6 10.5,5.3 14.6,6.9 C14.6,7 14.5,7.1 14.5,7.2 C10.4,5.5 6.3,3.8 2.2,2.2 C2.2,2.1 2.3,2 2.3,1.9 Z"></path>
                    <polygon points="15.1 8.5 0.9 2.7 1.7 0.5 16 6.3"></polygon>
                </g>
                <g transform="translate(4.000000, 196.000000)" id="Path">
                    <path d="M2.2,1.6 C3.4,4.7 4.7,7.9 5.9,11 L6,11 C4.8,7.9 3.5,4.7 2.3,1.6 C2.3,1.6 2.2,1.6 2.2,1.6 Z"></path>
                    <polygon points="5.4 12.3 4.9 11.4 0.9 1.2 2.8 0.1 7.3 11.6"></polygon>
                </g>
                <g transform="translate(10.000000, 210.000000)" id="Path">
                    <path d="M6.1,11.2 C4.7,8.1 3.4,5 2,1.9 C3.3,5 4.7,8.1 6.1,11.2 Z"></path>
                    <polygon points="5.9 13.4 0.7 1.4 2.5 0.4 2.9 1.4 7.2 11.3"></polygon>
                </g>
                <g transform="translate(41.000000, 283.000000)" id="Path">
                    <path d="M5.1,9.3 C3.7,6.2 2.3,3 1.3,0.8 C2.3,3.1 3.6,6.3 4.9,9.4 C4.9,9.3 5,9.3 5.1,9.3 Z"></path>
                    <polygon points="4.4 10.7 3.9 9.7 0.3 1.1 2.2 0.3 6.4 9.8"></polygon>
                </g>
                <g transform="translate(16.000000, 224.000000)" id="Path">
                    <path d="M5.8,11.4 C4.5,8.3 3.2,5.1 2,2 C2.1,2 2.2,1.9 2.3,1.9 C3.6,5 4.9,8.1 6.3,11.2 C6.1,11.3 5.9,11.4 5.8,11.4 Z"></path>
                    <polygon points="5.2 12.8 0.6 1.5 2.8 0.5 7.5 11.7"></polygon>
                </g>
                <g transform="translate(40.000000, 93.000000)" id="Path">
                    <path d="M7.7,2.2 C5.9,5.1 4.1,8.1 2.4,11 C2.2,10.9 2.1,10.8 1.9,10.7 C3,8.8 4,6.9 5.2,5 C5.7,4.1 6.3,3.3 7,2.4 C7.1,2.3 7.5,2.3 7.7,2.2 C7.8,2.2 7.7,2.2 7.7,2.2 Z"></path>
                    <path d="M2.8,12.4 L0.6,11.1 L2.1,8.6 C2.9,7.2 3.6,5.9 4.4,4.6 C4.9,3.7 5.5,2.8 6.2,1.9 C6.5,1.6 6.8,1.4 7.2,1.4 L8,0.1 L9.2,2.6 L8.6,3.1 L2.8,12.4 Z"></path>
                </g>
                <g transform="translate(309.000000, 17.000000)" id="Path">
                    <path d="M1.3,1.9 C2.2,4.3 3.1,6.7 4,9.1 L4.1,9.1 C3.2,6.7 2.3,4.3 1.5,1.8 C1.4,1.8 1.3,1.8 1.3,1.9 Z"></path>
                    <polygon points="3.5 10.4 3 9.5 0 1.3 2.1 0.5 5.4 9.7"></polygon>
                </g>
                <g transform="translate(393.000000, 220.000000)" id="Path">
                    <path d="M4.9,8.3 C4,6.1 3.1,3.8 2.1,1.6 C2.2,1.5 2.3,1.5 2.5,1.4 C3.4,3.6 4.4,5.8 5.3,8.1 C5.2,8.2 5,8.3 4.9,8.3 Z"></path>
                    <polygon points="4.4 9.7 0.8 1.1 3 0.1 6.7 8.7"></polygon>
                </g>
                <g transform="translate(18.000000, 153.000000)" id="Path">
                    <path d="M2.2,9.5 C2.8,6.7 3.4,3.9 4,1.1 C4.2,1.1 4.4,1.2 4.5,1.2 C4.4,1.7 4.4,2.3 4.3,2.8 C4,4.5 3.6,6.3 3.2,8 C3.1,8.6 2.6,9 2.2,9.5 Z"></path>
                    <path d="M2.9,11.3 L0.9,9.8 L1.3,9.1 L3.3,2.84217094e-14 L5.7,0.4 L5.6,1.4 C5.6,1.6 5.6,1.7 5.6,1.9 C5.6,2.3 5.5,2.7 5.5,3.1 L5.3,3.9 C5,5.4 4.7,6.9 4.3,8.3 C4.1,8.9 3.7,9.4 3.4,9.8 C3.3,9.9 3.3,9.9 3.2,10 L2.9,11.3 Z"></path>
                </g>
                <g transform="translate(46.000000, 296.000000)" id="Path">
                    <path d="M4.5,8.3 C3.5,5.9 2.6,3.5 1.7,1.3 C2.6,3.5 3.6,5.9 4.5,8.3 C4.6,8.3 4.5,8.3 4.5,8.3 Z"></path>
                    <polygon points="3.9 9.5 3.6 8.7 0.8 1.7 2.7 0.9 6 9"></polygon>
                </g>
                <g transform="translate(29.000000, 257.000000)" id="Path">
                    <path d="M2.1,2.4 C2.5,2.2 2.9,2 3.4,1.9 C4,3.5 4.5,5.2 5.1,6.8 C5,6.9 4.8,7 4.7,7 C3.8,5.5 2.9,4 2.1,2.4 Z"></path>
                    <polygon points="4.2 8.5 0.7 1.9 4 0.5 6.3 7.3"></polygon>
                </g>
                <g transform="translate(212.000000, 17.000000)" id="Path">
                    <path d="M10.4,2.7 C8.3,2.4 6.2,2.2 3.8,1.8 C5.6,1 9.3,1.6 10.4,2.7 C10.4,2.8 10.4,2.7 10.4,2.7 Z"></path>
                    <path d="M10.1,3.9 L9.9,3.7 L0.2,2.4 L3.4,0.9 C5.3,0 9.1,0.4 10.8,1.7 L11.2,1.8 L11.7,3.4 L10.1,3.9 Z"></path>
                </g>
                <g transform="translate(58.000000, 324.000000)" id="Path">
                    <path d="M1.9,1.5 C2.5,3 3.1,4.5 3.7,6 C3.6,6 3.6,6.1 3.5,6.1 C2.8,4.6 2.2,3.2 1.5,1.7 C1.7,1.5 1.8,1.5 1.9,1.5 Z"></path>
                    <polygon points="3 7.3 0.2 1 2.5 0.1 5.1 6.4"></polygon>
                </g>
                <g transform="translate(0.000000, 187.000000)" id="Path">
                    <path d="M2.2,1.2 C2.9,2.7 3.6,4.1 4.3,5.6 C4.2,5.6 4.1,5.7 4,5.7 C3.4,4.2 2.9,2.7 2.2,1.2 C2.3,1.2 2.3,1.2 2.2,1.2 Z"></path>
                    <polygon points="3.4 7.1 1.7 2.5 0.7 0.2 2.2 0.1 2.2 1.2 2.2 0.1 3 0.1 3.3 0.8 3.6 1.7 5.7 6.1"></polygon>
                </g>
                <g transform="translate(90.000000, 333.000000)" id="Path">
                    <path d="M5.5,4.3 C4.2,3.7 2.9,3 1.5,2.4 C1.7,2.1 1.8,1.9 2,1.6 C3.1,2.5 4.3,3.4 5.5,4.3 C5.4,4.3 5.5,4.3 5.5,4.3 Z"></path>
                    <path d="M5.3,5.5 L4.8,5.1 L4.7,5 L0.1,2.8 L1.8,0.1 L2.7,0.8 C3.7,1.6 4.8,2.5 5.8,3.3 L7.8,4.3 L5.3,5.5 Z"></path>
                </g>
                <g transform="translate(139.000000, 290.000000)" id="Path">
                    <path d="M2,26.3 C5.4,18.1 8.7,9.9 12.1,1.7 C12.3,1.8 12.4,1.8 12.6,1.9 C12.4,2.5 12.2,3 12,3.6 C9.2,10.4 6.5,17.2 3.6,24 C3,25.3 2.8,26.4 3.9,27.5 C3.5,27.7 3,27.8 2.6,28 C2.3,27.4 2.1,26.9 2,26.3 Z"></path>
                    <path d="M1.9,29.3 L0.8,26.3 L11.4,0.5 L13.8,1.3 L13.3,2.8 C13.2,3.2 13,3.6 12.9,4 L11.1,8.4 C9,13.6 6.8,19.1 4.5,24.4 C4,25.7 4,26.2 4.6,26.8 L5.7,27.9 L1.9,29.3 Z"></path>
                </g>
                <g transform="translate(90.000000, 89.000000)" fill-rule="nonzero" id="Shape">
                    <path d="M206.1,99.9 C205.3,99.3 204.4,98.7 203.5,98 C203.4,101.9 203.3,105.8 203,109.6 C202,123.4 198.2,136.3 191.8,148.5 C185.8,160.1 177.8,170.2 167.7,178.5 C162.5,182.7 156.8,186.3 151.1,189.9 C145.3,193.6 138.9,196.1 132.3,198 C128.1,199.2 123.8,200.1 119.5,200.9 C109.2,202.8 98.8,202.8 88.5,201.4 C77.4,199.9 66.9,196.4 56.9,191.4 C42.5,184.1 30.7,173.9 21.2,160.9 C17.1,155.3 13.8,149.3 10.9,143 C5.1,130.2 2.1,116.8 2,102.8 C1.9,90.1 4,77.7 8.6,65.8 C14.8,49.8 24.4,36.2 37.5,25.1 C48.9,15.4 61.8,8.5 76.3,4.6 C93.9,-0.1 111.5,-0.2 129.1,4.6 C145.4,9.1 159.8,17.2 172.2,28.9 C178.8,35.2 184.4,42.3 189.1,50.1 C194.1,58.5 198,67.4 200.1,76.9 C201.4,82.7 202.2,88.7 203,94.6 C203.2,95.9 203.5,97 204.6,97.8 C205.2,98.2 205.7,98.8 206.3,99.4 C206.3,99.6 206.2,99.7 206.1,99.9 Z M165.9,128 C166,127.8 166.1,127.6 166.1,127.4 C166.7,127.7 167.3,127.9 167.9,128.2 C175.1,131.2 182.3,134.1 189.5,137.1 C190.5,137.5 191.3,137.8 191.9,136.3 C196.5,124.2 198.6,111.6 198.2,98.7 C198.1,95.9 198.8,92.9 196.7,90.9 C197,90.1 197.4,89.6 197.4,89.2 C196.6,83.1 195.3,77 193.4,71.2 C190.6,62.6 186.3,54.7 181.2,47.3 C179.7,45.1 178,43 176.3,40.8 C176.2,40.9 176,41 175.9,41.1 C176.2,43.5 176.4,45.9 176.7,48.3 C176.5,48.3 176.3,48.3 176,48.3 C175.7,45.6 175.4,43 175,40.4 C174.9,39.7 174.6,39 174.2,38.5 C166.5,29.8 157.5,22.7 147.2,17.3 C144.6,15.9 141.9,14.8 139,13.5 C135.4,22.4 131.9,30.9 128.4,39.4 C128.3,39.3 128.1,39.3 128,39.2 C128.2,38.6 128.5,38 128.7,37.4 C131.7,30 134.7,22.6 137.8,15.3 C138.5,13.6 138.1,13 136.4,12.4 C126.5,8.7 116.3,6.6 105.7,6.3 C95.3,6 85,7.1 75.1,10.2 C69.7,11.9 64.5,14.2 59.4,16.6 C50.5,20.9 42.6,26.8 35.5,33.7 C26.8,42.3 19.9,52.2 14.9,63.4 C14.2,64.9 14.5,65.5 16,66.1 C23.5,69.1 31,72.2 38.5,75.3 C39,75.5 39.5,75.8 40.1,76.1 C40,76.3 39.9,76.5 39.8,76.6 C31.2,73.1 22.6,69.6 13.6,65.9 C12.1,71.2 10.4,76.1 9.2,81.2 C5,99.4 6.6,117.3 12.6,134.9 C14.9,141.5 18.1,147.7 22,153.6 C32.6,169.7 46.5,181.8 64.2,189.5 C65.7,190.1 66.3,189.9 66.9,188.4 C69.8,181.2 72.8,174 75.7,166.8 C75.9,166.2 76.2,165.7 76.4,165.1 C76.6,165.2 76.8,165.3 76.9,165.3 C73.5,173.6 70.1,182 66.6,190.4 C67.4,190.8 68,191.2 68.6,191.4 C72.9,192.7 77.2,194.2 81.6,195.3 C92.4,197.9 103.3,198.3 114.2,196.9 C120.2,196.1 126.1,194.6 131.9,192.9 C136.6,191.5 141.2,189.7 145.5,187.4 C152,184 158.2,180.1 163.8,175.3 C175.2,165.5 184.1,153.9 190.2,140.2 C190.8,138.9 190.6,138.3 189.2,137.8 C182,134.9 174.8,131.9 167.6,129 C167.2,128.5 166.5,128.2 165.9,128 Z"></path>
                    <path d="M102.8,203.4 C98.1,203.4 93.3,203.1 88.4,202.4 C77.6,200.9 66.8,197.5 56.5,192.3 C42.2,185.1 30.1,174.7 20.4,161.5 C16.5,156.2 13.1,150.3 10,143.4 C4.2,130.6 1.1,117 1,102.8 C0.9,89.8 3.1,77.2 7.7,65.4 C14,49.2 23.8,35.4 36.9,24.3 C48.6,14.4 61.8,7.4 76.1,3.6 C94.1,-1.2 112,-1.2 129.4,3.6 C145.9,8.1 160.5,16.4 172.9,28.2 C179.4,34.4 185.1,41.6 190,49.6 C195.4,58.5 199.1,67.6 201.1,76.7 C202.2,81.5 202.9,86.5 203.6,91.3 C203.8,92.4 203.9,93.4 204.1,94.5 C204.3,95.8 204.5,96.5 205.3,97.1 C205.8,97.5 206.2,97.9 206.6,98.3 C206.8,98.5 206.9,98.6 207.1,98.8 L207.7,99.4 L206.2,101.4 L204.4,100.1 C204.4,100.7 204.4,101.3 204.3,101.9 C204.2,104.6 204.1,107.2 204,109.8 C203,123.4 199.2,136.6 192.7,149.1 C186.5,161.1 178.3,171.3 168.3,179.4 C163.5,183.3 158.2,186.7 153.1,189.9 L151.6,190.8 C146.2,194.2 140,196.9 132.5,199 C128.7,200.1 124.6,201 119.6,202 C114.2,202.9 108.6,203.4 102.8,203.4 Z M103,2 C94.3,2 85.5,3.2 76.7,5.5 C62.7,9.2 49.7,16 38.3,25.8 C25.5,36.7 15.8,50.3 9.7,66.1 C5.2,77.7 3,90 3.1,102.7 C3.2,116.6 6.2,129.9 11.9,142.5 C15,149.3 18.3,155.1 22.1,160.3 C31.5,173.2 43.4,183.4 57.4,190.5 C67.5,195.6 78,199 88.6,200.4 C99.3,201.9 109.6,201.7 119.3,199.9 C124.3,199 128.4,198 132,197 C139.2,194.9 145.3,192.3 150.5,189 L152,188.1 C157.1,184.9 162.3,181.6 167,177.8 C176.7,169.8 184.8,159.8 190.9,148.1 C197.3,135.8 201,122.9 202,109.6 C202.2,107 202.3,104.5 202.3,101.8 C202.3,100.6 202.4,99.3 202.4,98.1 L202.4,96.9 C202.1,96.3 202,95.6 201.9,94.9 C201.7,93.8 201.6,92.8 201.4,91.7 C200.7,86.9 200,82 198.9,77.2 C196.9,68.3 193.3,59.4 188,50.7 C183.3,42.8 177.6,35.8 171.3,29.7 C159.1,18.1 144.8,10 128.7,5.6 C120.4,3.2 111.7,2 103,2 Z M102.3,198.4 C95.2,198.4 88.3,197.6 81.6,196 C78.4,195.2 75.2,194.2 72.1,193.2 C70.9,192.8 69.7,192.4 68.5,192.1 C68,191.9 67.5,191.7 67.1,191.5 C66.9,191.4 66.6,191.3 66.4,191.1 L65.5,190.7 C64.9,190.7 64.4,190.5 63.9,190.3 C46.4,182.6 32.1,170.4 21.3,154 C17.1,147.6 14,141.4 11.8,135.1 C5.5,116.8 4.3,98.5 8.4,80.9 C9.2,77.4 10.2,74.1 11.3,70.5 C11.8,68.9 12.3,67.2 12.8,65.6 L13.1,64.5 L13.7,64.7 C13.7,64.1 13.9,63.5 14.1,63 C19.2,51.7 26.2,41.6 34.9,33 C42.5,25.5 50.4,19.8 59,15.7 C65.1,12.8 70.1,10.7 74.9,9.2 C84.4,6.2 94.5,4.9 105.8,5.2 C116.3,5.5 126.7,7.6 136.8,11.3 C137.3,11.5 137.9,11.7 138.4,12.1 L138.5,11.9 L139.5,12.4 C140.4,12.8 141.3,13.2 142.2,13.6 C144.1,14.5 145.9,15.3 147.7,16.2 C158.2,21.7 167.3,28.9 175,37.6 C175.4,38.1 175.8,38.8 176,39.6 L176.6,39.2 L177.2,39.9 C177.7,40.6 178.2,41.2 178.8,41.9 C179.9,43.3 181.1,44.8 182.2,46.4 C187.8,54.5 191.8,62.5 194.5,70.6 C196.4,76.4 197.8,82.5 198.5,88.8 C198.6,89.4 198.3,89.9 198.1,90.4 C198.1,90.4 198.1,90.4 198.1,90.5 C199.5,92.3 199.4,94.6 199.4,96.7 C199.4,97.3 199.4,97.9 199.4,98.5 C199.8,111.5 197.7,124.3 193.1,136.5 C192.8,137.3 192.4,137.8 191.8,138.1 C192.1,138.9 191.8,139.7 191.5,140.3 C185.4,153.9 176.5,165.8 164.9,175.7 C159.6,180.2 153.6,184.2 146.4,187.9 C142,190.2 137.4,192 132.6,193.4 C125.6,195.4 120,196.7 114.8,197.4 C110.5,198.2 106.4,198.4 102.3,198.4 Z M68.1,189.7 C68.5,189.9 68.8,190.1 69.1,190.2 C70.3,190.6 71.5,190.9 72.7,191.3 C75.8,192.3 78.9,193.3 82.1,194 C92.4,196.5 103.3,197 114.4,195.6 C119.5,194.9 125.1,193.7 131.9,191.7 C136.5,190.3 141,188.5 145.3,186.3 C152.3,182.7 158.2,178.8 163.4,174.3 C174.8,164.5 183.6,152.9 189.5,139.6 C189.7,139.1 189.7,138.9 189.7,138.9 C189.7,138.9 189.6,138.8 189.1,138.6 C183.7,136.5 178.3,134.2 173.1,132.1 L164.6,128.6 L165.6,126.2 L166.6,126.5 L173.9,129.5 C179.3,131.7 184.7,133.9 190.1,136.1 C190.4,136.2 190.8,136.4 190.9,136.4 C190.9,136.4 191,136.3 191.1,135.9 C195.6,124 197.7,111.4 197.3,98.7 C197.3,98.1 197.3,97.4 197.3,96.8 C197.4,94.7 197.4,92.8 196.1,91.6 L195.6,91.1 L195.9,90.5 C196,90.2 196.2,89.9 196.3,89.7 C196.4,89.5 196.5,89.3 196.5,89.2 C195.7,83.1 194.4,77.1 192.5,71.4 C189.9,63.4 185.9,55.7 180.5,47.7 C179.5,46.3 178.4,44.8 177.3,43.5 L177.9,49.1 L175.2,49.3 L174.8,46.2 C174.6,44.3 174.3,42.4 174.1,40.4 C174,39.8 173.8,39.3 173.5,39 C166,30.5 157.1,23.4 146.8,18 C145.1,17.1 143.3,16.3 141.4,15.4 C140.8,15.1 140.2,14.9 139.6,14.6 L129,40.5 L126.7,39.5 L127.8,36.8 C128.6,34.8 129.4,32.8 130.2,30.8 C132.4,25.5 134.6,20 136.9,14.6 C137.2,13.8 137.1,13.6 137.1,13.6 C137.1,13.6 137,13.4 136.1,13.1 C126.2,9.4 116,7.4 105.8,7.1 C94.7,6.8 84.8,8 75.5,11 C70.8,12.5 65.9,14.5 59.9,17.4 C51.5,21.4 43.8,26.9 36.3,34.3 C27.8,42.7 20.9,52.6 15.9,63.7 C15.6,64.4 15.6,64.6 15.6,64.6 C15.6,64.6 15.7,64.8 16.4,65 C22.3,67.3 28.2,69.8 34,72.2 L38.9,74.2 C39.3,74.4 39.7,74.6 40.1,74.8 L41.5,75.5 L40.3,77.8 L14.3,67.2 C13.9,68.5 13.5,69.8 13.1,71.1 C12,74.6 11,77.9 10.2,81.3 C6.3,98.6 7.4,116.5 13.6,134.4 C15.7,140.5 18.7,146.6 22.8,152.8 C33.4,168.9 47.4,180.8 64.5,188.4 C65.2,188.7 65.4,188.7 65.4,188.7 C65.4,188.7 65.6,188.6 65.8,187.9 C67.9,182.6 70.2,177.1 72.3,171.9 L75.7,163.5 L78.1,164.6 L68.1,189.7 Z"></path>
                </g>
                <g transform="translate(292.000000, 230.000000)" id="Path">
                    <path d="M23.8,11.5 C16.4,8.5 9.1,5.5 1.7,2.4 C1.7,2.3 1.8,2.1 1.8,2 C2.2,2.1 2.6,2.1 2.9,2.3 C9.4,4.9 15.8,7.6 22.3,10.3 C22.9,10.5 23.3,11.1 23.8,11.5 Z"></path>
                    <path d="M23,12.6 L22.9,12.2 L0.4,3 L1.2,0.8 L2.1,1 C2.2,1 2.3,1 2.4,1.1 C2.7,1.2 3,1.2 3.4,1.4 L4.3,1.8 C10.4,4.3 16.6,6.8 22.8,9.4 C23.4,9.6 23.8,10.1 24.2,10.5 C24.3,10.6 24.4,10.7 24.4,10.7 L24.9,10.9 L24.9,12.5 L23,12.6 Z"></path>
                </g>
                <g transform="translate(231.000000, 64.000000)">
                    <ellipse id="Oval" transform="translate(7.265780, 15.730380) rotate(-67.728318) translate(-7.265780, -15.730380) " cx="7.26578" cy="15.73038" rx="16.1000496" ry="1"></ellipse>
                    <polygon id="Path" points="3.6 27.7 1.5 26.8 10.9 3.8 13.1 4.7"></polygon>
                </g>
                <g transform="translate(69.000000, 140.000000)" id="Path">
                    <path d="M2.1,1.3 C2.7,1.3 3.5,1.2 4,1.4 C10.3,3.9 16.6,6.5 22.9,9.1 C23.1,9.2 23.3,9.3 23.5,9.5 C23.4,9.7 23.4,9.8 23.3,10 C16.2,7.1 9.1,4.2 2.1,1.3 Z"></path>
                    <path d="M23.8,11.3 L22.9,10.9 C15.9,8 8.9,5.2 2,2.3 L0.8,2.3 L1.2,0.8 L1.6,0 L2.3,0.3 C2.4,0.3 2.5,0.3 2.6,0.3 C3.1,0.3 3.7,0.2 4.3,0.5 C9.8,2.7 15.5,5 20.9,7.3 L23.2,8.2 C23.5,8.3 23.7,8.5 23.8,8.6 L24.6,9.2 L23.8,11.3 Z"></path>
                </g>
                <g transform="translate(79.000000, 228.000000)" id="Path">
                    <path d="M5.6,8.5 C7,8 8.3,7.5 9.5,7.1 C8.7,8.8 6,8.1 5.6,10.7 C4.4,8 3.1,5.3 1.9,2.5 C2.1,2.4 2.2,2.3 2.4,2.2 C2.9,3.2 3.5,4.2 4,5.2 C4.5,6.2 5,7.3 5.6,8.5 Z"></path>
                    <path d="M6.2,14.3 L0.7,2.1 L2.9,0.8 L3.9,2.7 C4.3,3.4 4.6,4.1 5,4.8 C5.4,5.5 5.7,6.3 6.1,7 L6.2,7.2 L11.7,5.2 L10.5,7.5 C10,8.5 9,8.9 8.3,9.3 C7.3,9.7 6.9,9.9 6.8,10.8 L6.2,14.3 Z"></path>
                </g>
                <g transform="translate(263.000000, 102.000000)" id="Path">
                    <path d="M4.5,1.9 C3.9,6.4 3.2,10.8 2.6,15.3 C2.4,15.3 2.1,15.2 1.9,15.2 C2.5,10.7 3.2,6.3 3.8,1.8 C4,1.8 4.3,1.8 4.5,1.9 Z"></path>
                    <polygon points="3.5 16.4 0.7 16 2.9 0.6 5.7 1"></polygon>
                </g>
                <g transform="translate(337.000000, 206.000000)" id="Path">
                    <path d="M1.8,1.5 C6.2,1.8 10.7,2.1 15.1,2.4 C10.6,3.1 6.2,2.7 1.8,2 C1.7,1.8 1.7,1.7 1.8,1.5 Z"></path>
                    <path d="M10.2,3.8 C7.2,3.8 4.3,3.4 1.5,3 L0.5,2.8 L0.7,0.3 L23.6,1.9 L15.1,3.3 C13.5,3.7 11.9,3.8 10.2,3.8 Z"></path>
                </g>
                <g transform="translate(268.000000, 81.000000)" id="Path">
                    <path d="M6.2,4.2 C4.5,8.3 2.9,12.3 1.2,16.4 C0.7,15 3.8,6.5 6.2,4.2 Z"></path>
                    <path d="M1.1,19.2 L0.2,16.8 C-0.5,14.8 3,5.9 5.4,3.5 L8.9,0.1 L1.1,19.2 Z"></path>
                </g>
                <g transform="translate(273.000000, 66.000000)" id="Path">
                    <path d="M11.9,2.1 C9.4,5.7 6.9,9.3 4.3,12.9 C5.9,8.7 8.7,5.2 11.4,1.7 C11.6,1.8 11.8,1.9 11.9,2.1 Z"></path>
                    <path d="M0.3,20.3 L3.3,12.5 C4.9,8.4 7.5,5 10.1,1.7 L11.3,0.2 L13.3,1.9 L0.3,20.3 Z"></path>
                </g>
                <g transform="translate(299.000000, 191.000000)" id="Path">
                    <path d="M13.7,8.9 C9.9,6.7 6.1,4.5 2.3,2.2 C2.4,2 2.6,1.7 2.7,1.5 C6.5,3.8 10.3,6 14,8.3 C13.9,8.5 13.8,8.7 13.7,8.9 Z"></path>
                    <polygon points="14.2 10.3 0.9 2.6 2.3 0.2 15.3 8"></polygon>
                </g>
                <g transform="translate(318.000000, 201.000000)" id="Path">
                    <path d="M13.8,5.9 C9.6,4.6 5.5,3.3 1.3,2 C1.4,1.8 1.4,1.6 1.5,1.4 C5.7,2.7 9.8,4 14,5.3 C14,5.4 13.9,5.6 13.8,5.9 Z"></path>
                    <polygon points="14.5 7.1 0.1 2.6 0.9 0 15.4 4.6"></polygon>
                </g>
                <g transform="translate(285.000000, 146.000000)" id="Path">
                    <path d="M2.3,5.8 C5.3,4.5 8.3,3.3 11.3,2 C11.3,1.9 11.2,1.9 11.2,1.8 C8.2,3 5.2,4.1 2.1,5.3 C2.1,5.5 2.2,5.6 2.3,5.8 Z"></path>
                    <polygon points="1.7 7.1 0.7 4.7 11.7 0.5 12.6 2.6"></polygon>
                </g>
                <g transform="translate(68.000000, 237.000000)" id="Path">
                    <path d="M1.7,6.3 C4.8,5 7.9,3.7 11,2.4 C11,2.3 11,2.3 10.9,2.2 C7.8,3.4 4.6,4.7 1.5,5.9 C1.6,6 1.7,6.1 1.7,6.3 Z"></path>
                    <polygon points="1.2 7.6 0.2 5.3 11.5 0.8 12.3 2.7 11.5 3.3"></polygon>
                </g>
                <g transform="translate(70.000000, 218.000000)" id="Path">
                    <path d="M8.6,8.5 C6.8,6.2 5,3.8 3.1,1.4 C4.5,1.6 7.8,5.6 8.6,8.5 Z"></path>
                    <path d="M11,13.2 L0.7,0 L3.2,0.4 C5.2,0.7 8.7,5.3 9.5,8.2 L11,13.2 Z"></path>
                </g>
                <g transform="translate(84.000000, 241.000000)" id="Path">
                    <path d="M2.7,1.8 C3.3,4.7 3.8,7.7 4.4,10.6 C4.2,10.6 3.9,10.7 3.7,10.7 C3.1,7.8 2.6,4.8 2,1.9 C2.3,2 2.5,1.9 2.7,1.8 Z"></path>
                    <polygon points="2.9 12 0.8 1.3 3.5 0.6 5.6 11.5"></polygon>
                </g>
                <g transform="translate(86.000000, 253.000000)" id="Path">
                    <path d="M1.7,12.8 C1.8,9.4 1.9,6.4 2.1,3.4 C3.1,4.6 2.9,10.5 1.7,12.8 Z"></path>
                    <path d="M0.5,17.3 L1.2,0.6 L2.9,2.7 C4.3,4.5 3.9,10.8 2.6,13.2 L0.5,17.3 Z"></path>
                </g>
                <g transform="translate(69.000000, 291.000000)" id="Path">
                    <path d="M8.5,1.9 C6.6,4.2 4.7,6.5 2.8,8.8 C2.6,8.6 2.4,8.5 2.2,8.3 C4.1,6 6,3.8 7.9,1.5 C8.1,1.7 8.3,1.8 8.5,1.9 Z"></path>
                    <polygon points="3 10.2 0.8 8.5 7.7 0.2 10 1.7"></polygon>
                </g>
                <g transform="translate(82.000000, 267.000000)" id="Path">
                    <path d="M2.5,11.5 C3.3,8.7 4.1,5.8 4.9,2.9 C5.6,4.2 4.5,8.9 2.5,11.5 Z"></path>
                    <path d="M0.1,16.5 L4.6,0.2 L5.8,2.4 C6.9,4.4 5.3,9.5 3.4,12.1 L0.1,16.5 Z"></path>
                </g>
                <g transform="translate(36.000000, 198.000000)" id="Path">
                    <path d="M1.8,2 C4.6,2.6 7.4,3.3 10.3,3.9 C10.3,4.1 10.2,4.3 10.2,4.5 C7.4,3.9 4.5,3.4 1.7,2.8 C1.7,2.5 1.8,2.3 1.8,2 Z"></path>
                    <polygon points="10.9 5.7 0.4 3.6 1 0.8 11.5 3.1"></polygon>
                </g>
                <g transform="translate(61.000000, 208.000000)" id="Path">
                    <path d="M8.7,7.9 C6.4,6.1 4.1,4.2 1.7,2.4 C1.8,2.2 2,2 2.1,1.9 C4.4,3.7 6.7,5.6 9.1,7.4 C9,7.5 8.9,7.7 8.7,7.9 Z"></path>
                    <polygon points="8.9 9.3 0.4 2.5 2 0.4 10.6 7.2"></polygon>
                </g>
                <g transform="translate(78.000000, 279.000000)" id="Path">
                    <path d="M6.2,2.1 C4.9,4.7 3.6,7.3 2.3,9.9 C2.1,9.8 1.9,9.7 1.7,9.6 C3,7 4.4,4.4 5.7,1.8 C5.8,1.9 6,2 6.2,2.1 Z"></path>
                    <polygon points="2.7 11.3 0.2 10 5.1 0.5 7.5 1.6"></polygon>
                </g>
                <g transform="translate(49.000000, 202.000000)" id="Path">
                    <path d="M9.8,5.8 C7.1,4.6 4.5,3.3 1.8,2.1 C1.9,1.9 2,1.7 2.1,1.5 C4.8,2.7 7.4,4 10.1,5.2 C10,5.4 9.9,5.6 9.8,5.8 Z"></path>
                    <polygon points="10.3 7.2 0.5 2.6 1.6 0.1 11.4 4.7"></polygon>
                </g>
                <g transform="translate(88.000000, 231.000000)" id="Path">
                    <path d="M2,3.5 C3,3 4.1,2.5 5.1,2 C5.2,2.3 5.3,2.5 5.4,2.8 C4.2,3 3.1,3.2 1.9,3.4 C2,3.4 2,3.4 2,3.5 Z"></path>
                    <polygon points="1.3 4.9 0.7 2.5 2.2 2.2 5.6 0.6 6.9 3.5 2.8 4.2"></polygon>
                </g>
                <g transform="translate(141.000000, 168.000000)" id="Path">
                    <path d="M26.7,12.7 C18.3,9.3 9.9,5.8 1.5,2.4 C1.5,2.3 1.6,2.2 1.6,2.1 C10,5.5 18.4,9 26.8,12.4 C26.8,12.5 26.8,12.6 26.7,12.7 Z"></path>
                    <polygon points="27.3 14 0.2 3 1.1 0.8 28.2 11.9"></polygon>
                </g>
                <g transform="translate(170.000000, 214.000000)" id="Path">
                    <path d="M12.5,2.3 C9,10.7 5.6,19.2 2.1,27.6 C2,27.6 1.9,27.5 1.8,27.5 C5.3,19.1 8.7,10.6 12.2,2.2 C12.3,2.2 12.4,2.3 12.5,2.3 Z"></path>
                    <polygon points="2.7 28.9 0.5 28.1 11.7 0.9 13.8 1.7"></polygon>
                </g>
                <g transform="translate(201.000000, 139.000000)" id="Path">
                    <path d="M1.7,26.8 C5.1,18.4 8.6,10 12,1.6 C12.1,1.6 12.2,1.7 12.3,1.7 C8.9,10.1 5.4,18.5 2,27 C1.9,26.9 1.8,26.8 1.7,26.8 Z"></path>
                    <polygon points="2.5 28.3 0.4 27.3 11.5 0.2 13.7 1.1"></polygon>
                </g>
                <g transform="translate(216.000000, 199.000000)" id="Path">
                    <path d="M2.3,2 C10.7,5.5 19.2,8.9 27.6,12.4 C27.6,12.5 27.5,12.6 27.5,12.7 C19.1,9.2 10.6,5.8 2.2,2.3 C2.2,2.2 2.3,2.1 2.3,2 Z"></path>
                    <polygon points="28.1 14 0.8 2.9 1.7 0.7 28.9 11.8"></polygon>
                </g>
                <g transform="translate(186.000000, 189.000000)" id="Path">
                    <path d="M6.8,1.9 C5,6.2 3.3,10.5 1.4,15 C1.3,14.6 1.2,14.4 1.3,14.2 C2.8,10.5 4.3,6.8 5.8,3.2 C6.1,2.7 6.5,2.3 6.8,1.9 C6.9,1.9 6.8,1.9 6.8,1.9 Z"></path>
                    <path d="M1.1,18.6 L0.5,15.1 C0.5,15 0.5,14.9 0.4,14.8 C0.3,14.5 0.2,14.2 0.4,13.8 C2,9.9 3.4,6.3 4.9,2.8 C5.1,2.3 5.4,1.9 5.7,1.6 C5.8,1.5 5.8,1.5 5.9,1.4 L6.2,0.7 L7,0.8 L6.8,1.7 L7,1.9 L7.8,2.2 L1.1,18.6 Z"></path>
                </g>
                <g transform="translate(179.000000, 184.000000)" id="Path">
                    <path d="M13.8,6.9 C13.8,6.9 13.9,6.9 13.8,6.9 C11,5.8 8.1,4.8 5.3,3.7 C4,3.2 2.7,2.6 1.4,2.1 C1.5,1.9 1.6,1.6 1.7,1.4 C5.9,3.1 10.1,4.8 14.3,6.5 C14.1,6.6 14,6.7 13.8,6.9 Z"></path>
                    <path d="M14.2,8 L11.8,7.6 L12,7.3 L10.9,6.9 C8.9,6.1 6.9,5.4 4.9,4.6 C4,4.2 3.1,3.9 2.2,3.5 L0,2.6 L1.1,-2.84217094e-14 L14.6,5.5 L14.4,6 L15.7,6.5 L14.2,8 Z"></path>
                </g>
                <g transform="translate(264.000000, 155.000000)" id="Path">
                    <path d="M2.1,5.5 C5.1,4.4 8,3.3 11,2.3 C11,2.2 11,2.2 11,2.1 C8.1,3.3 5.2,4.6 2.3,5.8 C2.2,5.7 2.2,5.6 2.1,5.5 Z"></path>
                    <polygon points="1.9 7.1 0.6 5 7.7 2.4 11.6 0.7 12.2 2.8 11.4 3.3 8.5 4.3"></polygon>
                </g>
                <g transform="translate(192.000000, 189.000000)" id="Path">
                    <path d="M13.6,7.2 C9.7,5.6 5.7,4 1.8,2.4 C1.8,2.3 1.9,2.2 1.9,2.1 C5.8,3.7 9.8,5.3 13.7,7 C13.7,7 13.7,7.1 13.6,7.2 Z"></path>
                    <polygon points="14.1 8.5 0.4 2.9 1.4 0.7 15.1 6.3"></polygon>
                </g>
                <g transform="translate(267.000000, 145.000000)" id="Path">
                    <path d="M2,1.6 C3.2,4.9 4.4,8.2 5.6,11.6 C5.4,11.7 5.1,11.8 4.9,11.8 C3.7,8.5 2.5,5.1 1.3,1.8 C1.5,1.7 1.8,1.6 2,1.6 Z"></path>
                    <polygon points="4.3 13.1 0 1 2.7 0.3 6.9 12.1"></polygon>
                </g>
                <g transform="translate(192.000000, 178.000000)" id="Path">
                    <path d="M1.2,12.5 C1.2,12.3 1,12 1.1,11.8 C2.6,8 4.2,4.3 6,0.6 C4.4,4.5 2.8,8.5 1.2,12.5 Z"></path>
                    <path d="M2.5,14.1 L0.6,13.4 L0,12.7 L0.1,12.4 C0,12.1 0,11.8 0.1,11.4 C1.7,7.5 3.2,3.8 5.1,0.1 L7,1 L6.9,1.3 C5.4,5.1 3.8,8.8 2.3,12.6 L2.5,14.1 Z"></path>
                </g>
                <g transform="translate(248.000000, 162.000000)" id="Path">
                    <path d="M8.3,2.7 C6,3.5 3.7,4.2 1.3,5 L1.3,5.1 C3.5,4.1 5.8,3.2 8,2.2 C8.2,2.4 8.2,2.5 8.3,2.7 Z"></path>
                    <polygon points="0.6 6.6 0.2 4.4 1 4 2.3 3.6 8.6 0.9 9.7 3.3 3 5.5"></polygon>
                </g>
                <g transform="translate(273.000000, 161.000000)" id="Path">
                    <path d="M4.5,6.4 C3.7,4.9 2.8,3.4 2,1.9 C2.2,1.8 2.4,1.7 2.6,1.6 C3.4,3.1 4.3,4.6 5.1,6.1 C4.9,6.1 4.7,6.3 4.5,6.4 Z"></path>
                    <polygon points="4.1 7.8 0.6 1.5 2.9 0.2 3.5 1.1 6.5 6.4"></polygon>
                </g>
            </g>
            <path d="M398.6,223.2 L393.9,225.9 C374.8,236.9 350.3,230.3 339.3,211.3 L253.9,63.3 C242.9,44.2 249.5,19.7 268.5,8.7 L273.2,6 C292.3,-5 316.8,1.6 327.8,20.6 L413.2,168.6 C424.3,187.6 417.7,212.2 398.6,223.2 Z" id="Path" fill="#FF5F2C"></path>
            <path d="M314.3,369.5 L309.6,372.2 C290.5,383.2 266,376.6 255,357.6 L169.6,209.6 C158.6,190.5 165.2,166 184.2,155 L188.9,152.3 C208,141.3 232.5,147.9 243.5,166.9 L328.9,314.9 C339.9,333.9 333.4,358.5 314.3,369.5 Z" id="Path" fill="#6E1953"></path>
            <path d="M483,369.5 L478.3,372.2 C459.2,383.2 434.7,376.6 423.7,357.6 L338.3,209.6 C327.3,190.5 333.9,166 352.9,155 L357.6,152.3 C376.7,141.3 401.2,147.9 412.2,166.9 L497.6,314.9 C508.6,333.9 502,358.5 483,369.5 Z" id="Path" fill="#6E1953"></path>
            <path d="M231,154.9 L226.3,152.2 C207.2,141.2 182.7,147.8 171.7,166.8 L86.3,314.8 C75.3,333.9 81.9,358.4 100.9,369.4 L105.6,372.1 C124.7,383.1 149.2,376.5 160.2,357.5 L245.6,209.5 C256.7,190.5 250.1,165.9 231,154.9 Z" id="Path" fill="#6E1953"></path>
            <path d="M315.4,8.6 L310.7,5.9 C291.6,-5.1 267.1,1.5 256.1,20.5 L170.7,168.5 C159.7,187.6 166.3,212.1 185.3,223.1 L190,225.8 C209.1,236.8 233.6,230.2 244.6,211.2 L330,63.2 C341,44.2 334.4,19.6 315.4,8.6 Z" id="Path" fill="#FF5F2C"></path>
            <path d="M400.8,154.9 L396.1,152.2 C377,141.2 352.5,147.8 341.5,166.8 L256.1,314.8 C245.1,333.9 251.7,358.4 270.7,369.4 L275.4,372.1 C294.5,383.1 319,376.5 330,357.5 L415.4,209.5 C426.4,190.5 419.8,165.9 400.8,154.9 Z" id="Path" fill="#6E1953"></path>
            <g id="Group" transform="translate(104.000000, 29.000000)" fill="#D1D1D1">
                <polygon id="Path" points="204.5 12 189.7 0.3 172.1 7.2 169.3 25.9 184.1 37.7 201.7 30.7"></polygon>
                <g transform="translate(0.000000, 290.000000)" id="Path">
                    <polygon points="358.5 1.1 340.2 5.9 335.1 24.1 348.4 37.6 366.7 32.8 371.7 14.6"></polygon>
                    <polygon points="205.5 8.4 188.3 0.5 172.9 11.5 174.7 30.3 191.9 38.2 207.3 27.2"></polygon>
                    <polygon points="31.7 5.2 13.2 1.5 0.7 15.7 6.8 33.6 25.3 37.3 37.8 23.1"></polygon>
                </g>
                <g transform="translate(83.000000, 144.000000)" id="Path">
                    <polygon points="192.1 0.9 174.5 7.9 171.7 26.6 186.5 38.3 204.1 31.4 206.9 12.7"></polygon>
                    <polygon points="32.5 7 14.5 1.1 0.5 13.8 4.4 32.3 22.4 38.1 36.4 25.5"></polygon>
                </g>
            </g>
        </g>
    </g>
</svg>